<?xml version="1.0" encoding="UTF-8" standalone="no"?>
<!-- Created with Inkscape (http://www.inkscape.org/) -->

<svg
   version="1.1"
   id="svg2"
   width="666.66669"
   height="496.81332"
   viewBox="0 0 666.66669 496.81332"
   sodipodi:docname="3892308.eps"
   xmlns:inkscape="http://www.inkscape.org/namespaces/inkscape"
   xmlns:sodipodi="http://sodipodi.sourceforge.net/DTD/sodipodi-0.dtd"
   xmlns="http://www.w3.org/2000/svg"
   xmlns:svg="http://www.w3.org/2000/svg">
  <defs
     id="defs6" />
  <sodipodi:namedview
     id="namedview4"
     pagecolor="#ffffff"
     bordercolor="#000000"
     borderopacity="0.25"
     inkscape:showpageshadow="2"
     inkscape:pageopacity="0.0"
     inkscape:pagecheckerboard="0"
     inkscape:deskcolor="#d1d1d1" />
  <g
     id="g8"
     inkscape:groupmode="layer"
     inkscape:label="ink_ext_XXXXXX"
     transform="matrix(1.3333333,0,0,-1.3333333,0,496.81333)">
    <g
       id="g10"
       transform="scale(0.1)">
      <path
         d="m 0,449.129 h 5000 v 2.5 H 0 Z"
         style="fill:#e7e8e5;fill-opacity:1;fill-rule:nonzero;stroke:none"
         id="path12" />
      <path
         d="m 3946.67,290.672 h 552.34 v -2.5 h -552.34 v 2.5"
         style="fill:#e7e8e5;fill-opacity:1;fill-rule:nonzero;stroke:none"
         id="path14" />
      <path
         d="m 3218.07,340.621 h 86.9297 v 2.5 H 3218.07 Z"
         style="fill:#e7e8e5;fill-opacity:1;fill-rule:nonzero;stroke:none"
         id="path16" />
      <path
         d="m 3724.74,383.531 h 191.93 v -2.5 h -191.93 v 2.5"
         style="fill:#e7e8e5;fill-opacity:1;fill-rule:nonzero;stroke:none"
         id="path18" />
      <path
         d="m 524.59,364.23 h 431.934 v 2.5 H 524.59 Z"
         style="fill:#e7e8e5;fill-opacity:1;fill-rule:nonzero;stroke:none"
         id="path20" />
      <path
         d="m 2153.33,299.648 h 457.223 v 2.5 H 2153.33 Z"
         style="fill:#e7e8e5;fill-opacity:1;fill-rule:nonzero;stroke:none"
         id="path22" />
      <path
         d="m 1404.64,341.871 h 936.758 v 2.5 H 1404.64 Z"
         style="fill:#e7e8e5;fill-opacity:1;fill-rule:nonzero;stroke:none"
         id="path24" />
      <path
         d="m 2424.71,3669.02 c 0,30.09 -24.49,54.57 -54.57,54.57 H 439.152 c -30.101,0 -54.582,-24.48 -54.582,-54.57 V 954.699 c 0,-30.097 24.481,-54.578 54.582,-54.578 H 2370.14 c 30.08,0 54.57,24.481 54.57,54.578 V 3669.02 m 2.5,-2714.321 c 0,-31.48 -25.61,-57.078 -57.07,-57.078 H 439.152 c -31.476,0 -57.082,25.598 -57.082,57.078 V 3669.02 c 0,31.46 25.606,57.07 57.082,57.07 H 2370.14 c 31.46,0 57.07,-25.61 57.07,-57.07 V 954.699"
         style="fill:#e7e8e5;fill-opacity:1;fill-rule:nonzero;stroke:none"
         id="path26" />
      <path
         d="m 2602.12,3723.59 c -30.09,0 -54.57,-24.48 -54.57,-54.57 V 954.699 c 0,-30.097 24.48,-54.578 54.57,-54.578 h 1930.99 c 30.09,0 54.58,24.481 54.58,54.578 V 3669.02 c 0,30.09 -24.49,54.57 -54.58,54.57 H 2602.12 M 4533.11,897.621 H 2602.12 c -31.47,0 -57.07,25.598 -57.07,57.078 V 3669.02 c 0,31.46 25.6,57.07 57.07,57.07 h 1930.99 c 31.47,0 57.08,-25.61 57.08,-57.07 V 954.699 c 0,-31.48 -25.61,-57.078 -57.08,-57.078"
         style="fill:#e7e8e5;fill-opacity:1;fill-rule:nonzero;stroke:none"
         id="path28" />
      <path
         d="M 2758.75,2238.31 H 956.723 c -29.821,0 -53.993,24.17 -53.993,54 v 840.99 c 0,29.83 24.172,54 53.993,54 H 2758.75 c 29.83,0 54,-24.17 54,-54 v -840.99 c 0,-29.83 -24.17,-54 -54,-54"
         style="fill:#f3f2f1;fill-opacity:1;fill-rule:nonzero;stroke:none"
         id="path30" />
      <path
         d="M 2679.22,2317.84 H 877.191 c -29.82,0 -53.992,24.18 -53.992,54 v 841 c 0,29.82 24.172,54 53.992,54 H 2679.22 c 29.83,0 54,-24.18 54,-54 v -841 c 0,-29.82 -24.17,-54 -54,-54"
         style="fill:#dadbd8;fill-opacity:1;fill-rule:nonzero;stroke:none"
         id="path32" />
      <path
         d="M 2597.62,2399.44 H 795.59 c -29.82,0 -53.992,24.18 -53.992,54 v 841 c 0,29.82 24.172,54 53.992,54 h 1802.03 c 29.83,0 54,-24.18 54,-54 v -841 c 0,-29.82 -24.17,-54 -54,-54"
         style="fill:#e7e8e5;fill-opacity:1;fill-rule:nonzero;stroke:none"
         id="path34" />
      <path
         d="M 2484.94,2944.13 H 908.277 c -29.586,0 -53.57,23.98 -53.57,53.57 v 190.48 c 0,29.58 23.984,53.57 53.57,53.57 H 2484.94 c 29.58,0 53.57,-23.99 53.57,-53.57 V 2997.7 c 0,-29.59 -23.99,-53.57 -53.57,-53.57"
         style="fill:#ffffff;fill-opacity:1;fill-rule:nonzero;stroke:none"
         id="path36" />
      <path
         d="m 2172.5,2563.01 h -951.78 c -21.49,0 -38.92,17.42 -38.92,38.92 v 179.02 c 0,21.5 17.43,38.92 38.92,38.92 h 951.78 c 21.49,0 38.91,-17.42 38.91,-38.92 v -179.02 c 0,-21.5 -17.42,-38.92 -38.91,-38.92"
         style="fill:#dadbd8;fill-opacity:1;fill-rule:nonzero;stroke:none"
         id="path38" />
      <path
         d="m 1696.61,3002.16 c -9.31,0 -16.85,7.54 -16.85,16.84 v 147.87 c 0,9.31 7.54,16.85 16.85,16.85 9.3,0 16.85,-7.54 16.85,-16.85 V 3019 c 0,-9.3 -7.55,-16.84 -16.85,-16.84"
         style="fill:#dadbd8;fill-opacity:1;fill-rule:nonzero;stroke:none"
         id="path40" />
      <path
         d="m 1770.54,3076.09 h -147.87 c -9.3,0 -16.84,7.54 -16.84,16.85 0,9.3 7.54,16.85 16.84,16.85 h 147.87 c 9.3,0 16.85,-7.55 16.85,-16.85 0,-9.31 -7.55,-16.85 -16.85,-16.85"
         style="fill:#dadbd8;fill-opacity:1;fill-rule:nonzero;stroke:none"
         id="path42" />
      <path
         d="m 1748.89,3023.81 c -4.31,0 -8.62,1.65 -11.91,4.94 l -104.57,104.55 c -6.58,6.58 -6.58,17.25 0,23.83 6.58,6.58 17.25,6.58 23.83,0 l 104.56,-104.56 c 6.58,-6.58 6.58,-17.25 0,-23.82 -3.29,-3.29 -7.6,-4.94 -11.91,-4.94"
         style="fill:#dadbd8;fill-opacity:1;fill-rule:nonzero;stroke:none"
         id="path44" />
      <path
         d="m 1644.33,3023.81 c -4.32,0 -8.63,1.65 -11.92,4.94 -6.58,6.57 -6.58,17.24 0,23.82 l 104.57,104.56 c 6.57,6.58 17.24,6.58 23.82,0 6.58,-6.58 6.58,-17.25 0,-23.83 l -104.56,-104.55 c -3.3,-3.29 -7.6,-4.94 -11.91,-4.94"
         style="fill:#dadbd8;fill-opacity:1;fill-rule:nonzero;stroke:none"
         id="path46" />
      <path
         d="m 2117.76,3002.16 c -9.31,0 -16.85,7.54 -16.85,16.84 v 147.87 c 0,9.31 7.54,16.85 16.85,16.85 9.31,0 16.85,-7.54 16.85,-16.85 V 3019 c 0,-9.3 -7.54,-16.84 -16.85,-16.84"
         style="fill:#dadbd8;fill-opacity:1;fill-rule:nonzero;stroke:none"
         id="path48" />
      <path
         d="m 2191.69,3076.09 h -147.87 c -9.3,0 -16.85,7.54 -16.85,16.85 0,9.3 7.55,16.85 16.85,16.85 h 147.87 c 9.31,0 16.85,-7.55 16.85,-16.85 0,-9.31 -7.54,-16.85 -16.85,-16.85"
         style="fill:#dadbd8;fill-opacity:1;fill-rule:nonzero;stroke:none"
         id="path50" />
      <path
         d="m 2170.04,3023.81 c -4.31,0 -8.62,1.65 -11.91,4.94 l -104.57,104.55 c -6.58,6.58 -6.58,17.25 0,23.83 6.58,6.58 17.25,6.58 23.83,0 l 104.56,-104.56 c 6.58,-6.58 6.58,-17.25 0,-23.82 -3.28,-3.29 -7.59,-4.94 -11.91,-4.94"
         style="fill:#dadbd8;fill-opacity:1;fill-rule:nonzero;stroke:none"
         id="path52" />
      <path
         d="m 2065.47,3023.81 c -4.31,0 -8.62,1.65 -11.91,4.94 -6.58,6.57 -6.58,17.24 0,23.82 l 104.57,104.56 c 6.58,6.58 17.25,6.58 23.82,0 6.58,-6.58 6.58,-17.25 0,-23.83 l -104.56,-104.55 c -3.29,-3.29 -7.6,-4.94 -11.92,-4.94"
         style="fill:#dadbd8;fill-opacity:1;fill-rule:nonzero;stroke:none"
         id="path54" />
      <path
         d="m 1275.45,3002.16 c -9.3,0 -16.85,7.54 -16.85,16.84 v 147.87 c 0,9.31 7.55,16.85 16.85,16.85 9.31,0 16.85,-7.54 16.85,-16.85 V 3019 c 0,-9.3 -7.54,-16.84 -16.85,-16.84"
         style="fill:#dadbd8;fill-opacity:1;fill-rule:nonzero;stroke:none"
         id="path56" />
      <path
         d="m 1349.39,3076.09 h -147.87 c -9.3,0 -16.85,7.54 -16.85,16.85 0,9.3 7.55,16.85 16.85,16.85 h 147.87 c 9.31,0 16.85,-7.55 16.85,-16.85 0,-9.31 -7.54,-16.85 -16.85,-16.85"
         style="fill:#dadbd8;fill-opacity:1;fill-rule:nonzero;stroke:none"
         id="path58" />
      <path
         d="m 1327.74,3023.81 c -4.31,0 -8.62,1.65 -11.91,4.94 l -104.57,104.55 c -6.58,6.58 -6.58,17.25 0,23.83 6.58,6.58 17.25,6.58 23.82,0 l 104.57,-104.56 c 6.58,-6.58 6.58,-17.25 0,-23.82 -3.29,-3.29 -7.6,-4.94 -11.91,-4.94"
         style="fill:#dadbd8;fill-opacity:1;fill-rule:nonzero;stroke:none"
         id="path60" />
      <path
         d="m 1223.17,3023.81 c -4.31,0 -8.62,1.65 -11.91,4.94 -6.58,6.57 -6.58,17.24 0,23.82 l 104.57,104.56 c 6.58,6.58 17.25,6.58 23.82,0 6.58,-6.58 6.58,-17.25 0,-23.83 l -104.57,-104.55 c -3.28,-3.29 -7.59,-4.94 -11.91,-4.94"
         style="fill:#dadbd8;fill-opacity:1;fill-rule:nonzero;stroke:none"
         id="path62" />
      <path
         d="m 687.391,1225.22 -132.348,420.34 c -5.199,16.51 4.844,33.94 21.734,37.71 l 16.95,3.8 c 47.961,10.76 98.718,31.52 147.086,60.22 36.351,21.56 83.382,62.83 115.636,110.98 8.821,13.17 26.25,17.09 39.856,8.96 49.781,-29.74 109.985,-46.94 152.125,-50.9 55.98,-5.28 110.74,-2.36 158.71,8.41 l 16.94,3.81 c 16.89,3.81 33.42,-7.66 35.77,-24.81 l 59.97,-436.58 c 1.26,-9.12 -1.82,-18.31 -8.31,-24.85 L 1065.19,1094.4 c -8.11,-8.16 -20.21,-10.88 -31.02,-6.96 l -328.643,118.87 c -8.664,3.13 -15.371,10.12 -18.136,18.91"
         style="fill:#ededeb;fill-opacity:1;fill-rule:nonzero;stroke:none"
         id="path64" />
      <path
         d="m 964.547,1597.82 -4.945,-115.99 61.028,-215.66 -86.458,217 -10.524,102.55 -57.597,62.33 15.937,205.5 c 0.754,9.77 11.391,15.3 19.903,10.43 13.968,-7.98 28.675,-15.01 43.507,-21.04 4.524,-1.84 7.028,-6.65 5.84,-11.38 l -39.437,-156.89 52.746,-76.85"
         style="fill:#dadbd8;fill-opacity:1;fill-rule:nonzero;stroke:none"
         id="path66" />
      <path
         d="m 3596.7,3264.93 -554.83,-179.85 c -22.75,-7.37 -35.33,-32.02 -27.95,-54.78 l 123.69,-381.6 c 7.38,-22.75 32.03,-35.34 54.78,-27.96 l 554.83,179.85 c 22.76,7.38 35.33,32.03 27.96,54.78 l -123.7,381.61 c -7.38,22.75 -32.03,35.33 -54.78,27.95"
         style="fill:#f3f2f1;fill-opacity:1;fill-rule:nonzero;stroke:none"
         id="path68" />
      <path
         d="m 3424.59,2958.29 61.61,-137.41 -94.33,-30.58 -30.73,147.42 c -26.36,4.27 -49.48,22.74 -58.27,49.85 -12.53,38.63 8.59,80 47.22,92.53 38.56,12.5 79.94,-8.62 92.46,-47.25 8.79,-27.12 0.97,-55.61 -17.96,-74.56"
         style="fill:#dadbd8;fill-opacity:1;fill-rule:nonzero;stroke:none"
         id="path70" />
      <path
         d="m 2933.38,3551.66 c -85.69,-120.66 -55.84,-288.82 58.83,-382.38 l 27.34,-22.3 c 16.5,-13.47 40.81,-11.01 54.28,5.5 13.47,16.51 11.01,40.82 -5.5,54.29 l -34.94,28.51 c -92.6,75.55 -100.29,217.18 -10.63,302.19 74.12,70.26 191.02,69.38 270.15,4.82 l 43.36,64.21 c -123.72,100.94 -308.92,77.5 -402.89,-54.84"
         style="fill:#e7e8e5;fill-opacity:1;fill-rule:nonzero;stroke:none"
         id="path72" />
      <path
         d="m 3661.49,1108.9 c 58.45,-58.44 153.56,-58.45 212.01,0 58.43,58.44 58.43,153.54 0,211.98 -58.48,58.45 -153.57,58.44 -212.01,0 -58.43,-58.44 -58.43,-153.54 0,-211.99 z m 106,-138.13 c -62.53,0 -125.08,23.8 -172.7,71.42 v 0 c -95.22,95.22 -95.22,250.17 0,345.4 95.23,95.22 250.18,95.23 345.41,0 95.22,-95.23 95.22,-250.18 0,-345.4 -47.62,-47.608 -110.16,-71.42 -172.71,-71.42"
         style="fill:#e7e8e5;fill-opacity:1;fill-rule:nonzero;stroke:none"
         id="path74" />
      <path
         d="m 4253.73,681.48 c -12.06,0 -24.15,4.61 -33.35,13.821 L 3873.5,1042.19 c -18.43,18.42 -18.43,48.28 0,66.7 18.4,18.43 48.29,18.43 66.7,0 l 346.88,-346.878 c 18.43,-18.422 18.43,-48.293 0,-66.711 -9.2,-9.211 -21.28,-13.821 -33.35,-13.821"
         style="fill:#e7e8e5;fill-opacity:1;fill-rule:nonzero;stroke:none"
         id="path76" />
      <path
         d="m 4072.87,616.262 c -12.06,0 -24.14,4.597 -33.35,13.808 -18.43,18.418 -18.43,48.289 0,66.711 l 123.04,123.039 c 18.41,18.418 48.29,18.418 66.7,0 18.43,-18.422 18.43,-48.281 0,-66.711 L 4106.22,630.07 c -9.2,-9.211 -21.28,-13.808 -33.35,-13.808"
         style="fill:#e7e8e5;fill-opacity:1;fill-rule:nonzero;stroke:none"
         id="path78" />
      <path
         d="m 4015.43,751.531 c -12.07,0 -24.15,4.598 -33.35,13.821 -18.43,18.418 -18.43,48.277 0,66.699 l 84.13,84.129 c 18.41,18.422 48.3,18.422 66.71,0 18.42,-18.418 18.42,-48.289 0,-66.711 l -84.14,-84.129 c -9.2,-9.199 -21.28,-13.809 -33.35,-13.809"
         style="fill:#e7e8e5;fill-opacity:1;fill-rule:nonzero;stroke:none"
         id="path80" />
      <path
         d="M 4438.89,113.238 C 4438.89,50.6992 3570.83,0 2500,0 1429.18,0 561.113,50.6992 561.113,113.238 c 0,62.532 868.067,113.231 1938.887,113.231 1070.83,0 1938.89,-50.699 1938.89,-113.231"
         style="fill:#f3f2f1;fill-opacity:1;fill-rule:nonzero;stroke:none"
         id="path82" />
      <path
         d="m 3234.8,1681.33 c -36.17,-51.74 -138.76,-175.15 -229.01,-208.43 -142.21,-282.08 53.73,-685.591 244.15,-816.92 0,0 530.94,275.668 615.51,950.13 l -630.65,75.22"
         style="fill:#17282f;fill-opacity:1;fill-rule:nonzero;stroke:none"
         id="path84" />
      <path
         d="m 3912.08,3311.52 c -107.73,19.64 -357.63,30.68 -376.39,-259.71 -18.76,-290.38 -113.03,-482.08 126.49,-533.24 6.52,30.63 16.84,79.08 16.84,79.08 l 233.06,713.87"
         style="fill:#17282f;fill-opacity:1;fill-rule:nonzero;stroke:none"
         id="path86" />
      <path
         d="m 3506.57,2655 c -3.44,18.05 -4.88,37.62 -4.88,58.65 -0.02,88.33 25.23,202.47 34,338.16 8.61,133.3 65.92,203.08 135.83,237.67 -0.15,-0.11 -0.23,-0.17 -0.23,-0.17 v 0 0 c 0,0 9.86,-0.54 25.36,-3.33 -43.98,-13 -77.83,-38.15 -89.11,-70.32 0,0 20.1,12.83 43.07,12.83 3.63,0 7.34,-0.32 11.05,-1.06 -22.94,-11.43 -54.15,-39.28 -42.7,-75.58 -6.96,-11.72 -13.14,-24.17 -18.56,-37.08 -0.17,0 -0.33,0 -0.49,0 -8.44,0 -9.87,-1.12 -9.87,-1.12 0,0 -24.09,-48.49 -20.16,-84.8 0.06,0 0.11,0 0.16,0 1.79,0 3.75,0.04 5.83,0.12 -5.44,-31.79 -7.14,-63.06 -5.47,-90.44 4.3,-70.36 51.9,-126.54 111.28,-146.07 2.13,-11 3.72,-21.99 4.41,-32.74 0.06,-1.16 0.12,-2.31 0.16,-3.47 0.01,0 0.02,0 0.03,0 1.86,-40.98 -10.21,-77.88 -57.16,-96.73 -41.71,-0.11 -82.8,-1.57 -122.55,-4.52"
         style="fill:#405158;fill-opacity:1;fill-rule:nonzero;stroke:none"
         id="path88" />
      <path
         d="m 3506.15,2603.49 c -55.63,24.28 -120.41,-1.12 -144.7,-56.74 l -0.54,-1.25 -47.28,-108.26 c -15.78,-36.32 -32.11,-72.31 -48.3,-107.91 -8.15,-17.77 -16.47,-35.38 -24.98,-52.63 -8.29,-17.39 -16.75,-34.55 -25.46,-51.07 -8.62,-16.56 -17.74,-32.5 -26.43,-47.59 -3.54,-6.02 -7.14,-11.81 -10.69,-17.32 -5.53,-0.89 -11.18,-1.73 -17.02,-2.46 -19.03,-2.27 -39.43,-3.37 -60.46,-3.41 -21.09,0.16 -42.73,0.78 -64.68,1.99 -21.99,1.36 -44.19,3.53 -66.6,5.85 -44.84,4.76 -90.21,11.32 -135.76,18.78 -22.77,3.77 -45.65,7.57 -68.45,11.83 l -67.9,12.6 -1.91,0.37 c -23.49,4.35 -47.95,-7.13 -59.08,-29.6 -13.43,-27.13 -2.33,-60.02 24.8,-73.45 45.28,-22.41 89.8,-40.64 136.09,-57.98 23.1,-8.38 46.32,-16.68 69.93,-24.14 23.63,-7.38 47.48,-14.4 71.67,-20.92 48.52,-12.38 98.24,-23.29 150.82,-29.06 26.33,-2.87 53.44,-4.6 81.8,-4.46 28.4,0.15 58.02,2.66 90.22,9.79 16.07,3.54 31.26,11.63 43.59,24.31 l 4.54,4.67 c 19.93,20.49 34.87,39.59 48.99,58.56 13.99,18.85 26.1,37.78 37.98,56.49 23.65,37.42 44.58,74.83 64.23,112.58 9.98,18.79 19.49,37.68 28.61,56.7 9.13,19.02 18.38,37.92 26.88,57.12 8.56,19.18 17.22,38.29 25.22,57.69 8.27,19.51 15.78,38.46 23.65,59.21 20.52,54.4 -4.9,116.18 -58.78,139.71"
         style="fill:#17282f;fill-opacity:1;fill-rule:nonzero;stroke:none"
         id="path90" />
      <path
         d="m 3319.21,2120.84 c -17.32,33.8 -52.5,56.94 -93.09,56.94 h -37.82 c 0.05,0.09 0.1,0.17 0.16,0.26 8.69,15.09 17.81,31.03 26.43,47.59 8.71,16.52 17.17,33.68 25.46,51.07 8.51,17.25 16.83,34.86 24.98,52.63 16.19,35.6 32.52,71.59 48.3,107.91 l 43.71,100.08 c -1.17,-6.26 -1.93,-12.66 -2.25,-19.18 -4.39,-88.59 -11.04,-221.99 -35.88,-397.3 m -462.93,56.94 h -143.96 c -4.02,12.39 -12.52,22.82 -23.73,29.28 2.13,-0.13 4.27,-0.4 6.4,-0.79 l 1.91,-0.37 67.9,-12.6 c 22.8,-4.26 45.68,-8.06 68.45,-11.83 7.68,-1.26 15.36,-2.49 23.03,-3.69"
         style="fill:#405158;fill-opacity:1;fill-rule:nonzero;stroke:none"
         id="path92" />
      <path
         d="m 2677.33,2211.9 -82.19,24.45 -0.73,-142.73 c 0,0 52.44,-8.91 90.37,4.71 22.77,8.18 35.46,32.64 31.77,56.55 l -2.27,14.67 c -3.1,20.07 -17.48,36.56 -36.95,42.35"
         style="fill:#e96759;fill-opacity:1;fill-rule:nonzero;stroke:none"
         id="path94" />
      <path
         d="m 2485.98,2178.33 8.19,-50.06 c 3.25,-19.93 20.46,-34.57 40.66,-34.59 l 59.58,-0.06 0.73,142.73 -74.25,-10.54 c -22.89,-3.24 -38.63,-24.67 -34.91,-47.48"
         style="fill:#e96759;fill-opacity:1;fill-rule:nonzero;stroke:none"
         id="path96" />
      <path
         d="m 3939.64,2637.58 c -144.55,20.81 -309.64,28.5 -453.91,15.73 -71.21,-6.3 -127.11,-63.76 -130.64,-135.17 -7.86,-158.64 -22.97,-460.93 -136.78,-890.26 63.92,-72.89 283.05,-207.26 639.35,-121.81 115.48,194.8 195.93,487.27 272.92,858.83 27.2,131.27 -58.25,253.59 -190.94,272.68"
         style="fill:#17282f;fill-opacity:1;fill-rule:nonzero;stroke:none"
         id="path98" />
      <path
         d="m 3636.02,1478.57 c -130.24,0 -232.55,30.79 -305.37,67.67 v 372.61 c 37.75,-26.18 75.27,-52.66 112.57,-79.47 l -31.57,-56.35 c -3.96,-7.09 -1.91,-16.02 4.76,-20.66 l 41.36,-28.75 c -7.48,-22.39 -15.27,-43.78 -23.29,-63.6 -17.98,-44.52 -37.23,-81.14 -56.4,-103.15 l 7.12,-6.19 c 20.41,23.52 39.8,60.78 58.03,105.8 7.78,19.26 15.34,39.93 22.61,61.53 l 166.13,-115.48 c 2.76,-1.91 5.89,-2.82 8.98,-2.82 5.5,0 10.87,2.87 13.78,8.06 l 32.66,58.31 c 33.13,-26.45 65.98,-53.21 98.55,-80.3 l 0.59,-0.49 0.36,-0.29 c 6.45,-5.17 14.16,-7.67 21.83,-7.67 10.24,0 20.39,4.48 27.29,13.09 12.07,15.07 9.64,37.06 -5.42,49.13 -36.32,29.1 -72.95,57.78 -109.85,86.05 l 12.95,23.12 c -0.01,-0.43 -0.01,-0.85 -0.01,-1.27 0,-2.2 0.13,-4.42 0.4,-6.66 3.36,-27.94 27.11,-48.46 54.57,-48.46 2.19,0 4.41,0.13 6.64,0.4 22.68,2.73 42.96,6 64.14,10.21 20.9,4.29 41.79,8.99 62.5,14.77 14.57,3.9 29.11,8.18 43.61,12.93 -32.68,-89.21 -68.22,-167.66 -107.88,-234.57 -81.05,-19.44 -155,-27.5 -221.64,-27.5 m 103.48,303.44 c -1.13,2.56 -2.96,4.85 -5.41,6.55 l -211.8,147.22 c 14.93,67.72 25.72,130.35 30.83,174.77 15.95,138.89 10.38,265.39 79.61,459.65 l -8.88,3.17 v 0 c -69.77,-195.68 -64.24,-323.91 -80.1,-461.74 -4.98,-43.35 -15.5,-104.6 -30.04,-170.97 -1.37,0.38 -2.77,0.57 -4.17,0.57 -5.49,0 -10.86,-2.87 -13.77,-8.07 l -12.98,-23.15 c -50.33,35.34 -101.04,70.05 -152.14,104.21 v 59.02 c 0,17.15 -4.12,33.32 -11.44,47.6 24.84,175.31 31.49,308.71 35.88,397.3 3.53,71.41 59.43,128.87 130.64,135.17 46.14,4.09 94.36,6.08 143.39,6.21 -7.19,-2.88 -15.19,-5.34 -24.09,-7.33 7.35,-30.28 31.12,-49.09 73.99,-54.55 l -16.84,-79.07 279.83,78.7 c 0,0 10.84,12.1 27.08,34.2 40.31,-11.04 75.19,-32.04 102.47,-59.86 -18.93,14.07 -42.08,21.85 -65.86,21.85 -14.19,0 -28.62,-2.77 -42.51,-8.64 -41.94,-17.7 -67.15,-58.38 -67.18,-101.2 -0.01,-14.27 2.78,-28.79 8.68,-42.76 l 0.98,-2.33 22.17,-52.52 22.14,-53.71 c 14.34,-35.93 28.78,-71.71 41.59,-107.53 13.35,-35.61 25.01,-71.37 35.13,-105.92 4.97,-17.24 9.38,-34.27 12.72,-50.41 3.36,-16.07 5.59,-31.51 6.62,-43.52 0.5,-5.94 0.55,-10.99 0.55,-13.64 0.01,-1.03 0.05,-1.83 0.23,-1.83 0.04,0 0.08,0.03 0.13,0.09 l 0.31,0.22 0.46,0.88 0.36,0.08 -1.85,-4.73 -0.82,-2.31 c -0.71,-1.68 -1.54,-3.54 -2.71,-5.59 -2.32,-4.04 -5.37,-8.86 -9.24,-13.88 -15.78,-20.35 -42.38,-42.54 -71.12,-63.09 -58.1,-41.26 -128.59,-78.42 -196.28,-113.52 l -2.79,-1.42 c -10.33,-5.39 -18.62,-13.91 -23.77,-24.17 m -294.03,61.39 c -38.04,27.45 -76.31,54.57 -114.82,81.37 v 18.06 c 40.85,-28.7 81.41,-57.77 121.66,-87.22 l -6.84,-12.21"
         style="fill:#6c7a7f;fill-opacity:1;fill-rule:nonzero;stroke:none"
         id="path100" />
      <path
         d="m 3385.2,1560.68 -7.12,6.19 c 19.17,22.01 38.42,58.63 56.4,103.15 8.02,19.82 15.81,41.21 23.29,63.6 l 8.07,-5.61 c -7.27,-21.6 -14.83,-42.27 -22.61,-61.53 -18.23,-45.02 -37.62,-82.28 -58.03,-105.8 m 137.09,375.1 -3.77,2.62 c -1.51,1.05 -3.14,1.8 -4.81,2.26 14.54,66.37 25.06,127.62 30.04,170.97 15.86,137.83 10.33,266.06 80.1,461.74 v 0 l 8.88,-3.17 c -69.23,-194.26 -63.66,-320.76 -79.61,-459.65 -5.11,-44.42 -15.9,-107.05 -30.83,-174.77"
         style="fill:#495960;fill-opacity:1;fill-rule:nonzero;stroke:none"
         id="path102" />
      <path
         d="m 1516.63,2991.32 c 102.38,-44.74 203.75,-91.16 304.53,-139.07 100.88,-47.64 201.1,-96.68 300.84,-146.71 199.43,-100.16 396.53,-205.04 591.22,-314.46 194.41,-109.94 385.44,-226 573.23,-347.5 186.72,-123.19 368.92,-253.65 544.14,-394.03 15.06,-12.07 17.49,-34.06 5.42,-49.13 -12.06,-15.06 -34.06,-17.49 -49.12,-5.42 l -0.36,0.29 -0.59,0.49 c -170.21,141.58 -348.3,274.22 -531.45,399.96 -184.28,124.1 -372.22,243.11 -563.86,356.21 -191.93,112.57 -386.53,220.78 -583.63,324.38 -98.58,51.74 -197.67,102.53 -297.46,151.93 -99.65,49.64 -200.12,97.9 -301.16,144.3 l -0.13,0.06 c -5.15,2.36 -7.4,8.44 -5.04,13.58 2.34,5.09 8.31,7.34 13.42,5.12"
         style="fill:#17282f;fill-opacity:1;fill-rule:nonzero;stroke:none"
         id="path104" />
      <path
         d="m 3542.98,1766.49 c -157.9,117.32 -320.29,228.53 -485.96,334.62 -82.79,53.11 -166.27,105.13 -250.53,155.89 -84.13,50.96 -168.95,100.78 -254.32,149.63 -170.63,97.92 -343.53,191.85 -517.98,282.76 -174.57,90.63 -350.64,178.63 -529.04,261.26 l 1.42,-0.38 c -59.38,6.16 -119.44,5.58 -179.04,1 -59.6,-4.75 -118.96,-13.64 -177,-27.76 -29,-7.1 -57.67,-15.56 -85.5,-26.12 -27.74,-10.6 -54.93,-23.18 -78.882,-40.16 -11.871,-8.51 -22.921,-18.26 -31.261,-29.77 -8.352,-11.43 -13.516,-24.96 -12.684,-38.66 0.688,-13.71 6.914,-26.91 15.465,-38.37 8.582,-11.52 19.316,-21.62 30.766,-30.8 23.086,-18.29 49.086,-33.09 75.686,-46.4 26.48,-13.34 54.8,-24.12 81.4,-39.04 26.49,-14.66 52.5,-31.72 72.83,-55.52 10.06,-11.87 18.41,-25.7 22.92,-41.08 4.33,-15.42 4.42,-31.86 1.27,-47.28 -6.84,-30.98 -23.7,-57.48 -41.29,-82.01 -17.88,-24.55 -37.51,-47.42 -56.6,-70.52 -19.09,-23.07 -37.88,-46.32 -53.71,-71.28 -15.65,-24.85 -28.66,-51.95 -31.28,-80.54 -2.82,-28.57 7.05,-56.94 24.39,-80.06 17.14,-23.44 40.35,-42.36 64.5,-59.23 48.46,-33.41 108.98,-44.89 167.83,-43.49 59.27,1.28 118.09,13.74 175.31,30.35 57.3,16.76 113.3,38.11 168.43,61.41 110.33,46.71 216.99,101.81 325.14,154.31 54.22,25.97 108.57,52.06 166.02,71.89 14.4,4.86 29.04,9.24 44.09,12.51 15.05,3.21 30.59,5.51 46.73,4.46 8.05,-0.53 16.33,-2.12 24.23,-5.52 7.93,-3.26 15.24,-8.94 20.53,-15.93 10.59,-14.4 12.77,-31.58 12.89,-47.19 0.03,-4.06 -3.24,-7.38 -7.31,-7.41 -4.06,-0.03 -7.39,3.24 -7.41,7.3 l -0.01,0.11 c 0.02,14.1 -2.33,28.31 -9.86,38.38 -7.41,10.09 -20.27,14.89 -34.11,15.75 -13.86,0.93 -28.37,-1.06 -42.63,-4.11 -14.29,-3.08 -28.48,-7.28 -42.54,-12 -56.18,-19.26 -110.45,-45.12 -164.5,-70.92 -107.99,-52.17 -215.01,-107.22 -326.04,-154 -55.5,-23.34 -111.96,-44.76 -169.98,-61.63 -57.97,-16.69 -117.75,-29.31 -178.74,-30.55 -30.42,-0.5 -61.14,1.88 -90.98,9.18 -29.83,7.13 -58.66,19.38 -84.13,36.82 -24.86,17.47 -48.96,37.05 -67.36,62.26 -9.15,12.54 -16.79,26.47 -21.52,41.57 -4.76,15.05 -6.44,31.14 -5.01,46.83 3.01,31.61 17.09,60.18 33.27,85.82 16.41,25.75 35.53,49.27 54.75,72.39 19.2,23.14 38.75,45.85 56.29,69.82 17.29,23.91 33.3,49.5 39.51,77.54 2.86,13.96 2.76,28.32 -0.99,41.89 -3.95,13.51 -11.34,25.98 -20.63,36.98 -18.73,22.09 -43.77,38.78 -69.6,53.1 -25.79,14.56 -53.78,25.28 -80.91,38.99 -27,13.58 -53.49,28.68 -77.509,47.75 -11.906,9.61 -23.242,20.25 -32.598,32.85 -9.273,12.49 -16.601,27.59 -17.426,44.08 -0.98,16.51 5.391,32.62 14.723,45.26 9.344,12.82 21.203,23.14 33.68,32.06 25.16,17.75 53,30.48 81.27,41.24 28.35,10.69 57.41,19.19 86.73,26.32 58.7,14.14 118.52,22.99 178.62,27.66 60.09,4.49 120.63,4.98 180.75,-1.38 l 1.42,-0.39 c 178.53,-83.14 354.41,-171.5 528.91,-262.56 174.36,-91.32 347.15,-185.65 517.65,-283.98 85.32,-49.04 170.08,-99.07 254.15,-150.23 84.19,-50.96 167.62,-103.18 250.34,-156.49 165.53,-106.48 327.78,-218.1 485.55,-335.83 0.95,-0.71 1.15,-2.06 0.44,-3.01 -0.72,-0.96 -2.07,-1.15 -3.03,-0.44"
         style="fill:#17282f;fill-opacity:1;fill-rule:nonzero;stroke:none"
         id="path106" />
      <path
         d="m 1663.54,2902.38 -11.04,-19.71 c -3.41,-6.1 -11.2,-8.29 -17.3,-4.87 -6.1,3.41 -8.3,11.2 -4.88,17.3 l 11.04,19.71 c 3.42,6.1 11.21,8.3 17.31,4.88 6.1,-3.42 8.29,-11.21 4.87,-17.31"
         style="fill:#17282f;fill-opacity:1;fill-rule:nonzero;stroke:none"
         id="path108" />
      <path
         d="m 2245.68,2603.76 -11.04,-19.71 c -3.42,-6.1 -11.21,-8.3 -17.31,-4.88 -6.09,3.42 -8.29,11.21 -4.87,17.31 l 11.04,19.7 c 3.41,6.1 11.2,8.3 17.31,4.88 6.09,-3.42 8.29,-11.2 4.87,-17.3"
         style="fill:#17282f;fill-opacity:1;fill-rule:nonzero;stroke:none"
         id="path110" />
      <path
         d="m 2852.26,2263.92 -11.04,-19.71 c -3.42,-6.1 -11.21,-8.3 -17.31,-4.88 -6.1,3.42 -8.29,11.21 -4.88,17.31 l 11.04,19.71 c 3.42,6.1 11.21,8.29 17.31,4.87 6.1,-3.41 8.29,-11.2 4.88,-17.3"
         style="fill:#17282f;fill-opacity:1;fill-rule:nonzero;stroke:none"
         id="path112" />
      <path
         d="m 3433.47,1878.8 -11.05,-19.7 c -3.42,-6.1 -11.2,-8.3 -17.3,-4.88 -6.1,3.42 -8.3,11.2 -4.88,17.3 l 11.04,19.71 c 3.42,6.1 11.21,8.3 17.31,4.88 6.1,-3.42 8.29,-11.21 4.88,-17.31"
         style="fill:#17282f;fill-opacity:1;fill-rule:nonzero;stroke:none"
         id="path114" />
      <path
         d="m 3738.84,1767.91 -84.11,-150.14 c -4.55,-8.12 -15.11,-10.55 -22.76,-5.24 l -215.56,149.84 c -6.67,4.64 -8.72,13.57 -4.76,20.66 l 84.12,150.13 c 4.55,8.12 15.11,10.56 22.75,5.24 l 215.57,-149.84 c 6.66,-4.63 8.72,-13.57 4.75,-20.65"
         style="fill:#17282f;fill-opacity:1;fill-rule:nonzero;stroke:none"
         id="path116" />
      <path
         d="m 3598.03,1690.6 v 0 z m -105.21,63.25 -13.25,-23.65 c -13.23,-23.62 -6.45,-53.08 15.78,-68.53 l 14.9,-10.36 c 12.27,-8.53 27.04,-11.37 41.6,-8.02 14.56,3.35 26.6,12.37 33.9,25.41 l 8.29,14.79 z m 47.34,-146.83 c -17.67,0 -35.13,5.36 -49.86,15.6 l -14.89,10.35 c -37.08,25.78 -48.4,74.92 -26.34,114.31 l 18.09,32.28 c 3.57,6.38 9.71,10.97 16.82,12.61 7.15,1.64 14.65,0.19 20.65,-3.98 l 116.04,-80.66 c 11.04,-7.68 14.4,-22.3 7.85,-34.01 l -12.28,-21.9 c -12,-21.43 -32.61,-36.88 -56.55,-42.39 -6.45,-1.48 -13.01,-2.21 -19.53,-2.21"
         style="fill:#17282f;fill-opacity:1;fill-rule:nonzero;stroke:none"
         id="path118" />
      <path
         d="m 3727.13,1820.07 -21.49,-38.37 c -2.08,-3.7 -6.6,-4.73 -10.1,-2.28 l -143.49,100.17 c -3.51,2.44 -4.66,7.42 -2.58,11.13 l 21.49,38.36 c 2.08,3.71 6.6,4.73 10.1,2.29 l 143.5,-100.17 c 3.49,-2.44 4.65,-7.43 2.57,-11.13"
         style="fill:#17282f;fill-opacity:1;fill-rule:nonzero;stroke:none"
         id="path120" />
      <path
         d="m 3861.23,2931.47 -182,-127.33 c 14.49,-64.55 14.99,-132.02 -74.2,-151.95 7.35,-30.28 31.12,-49.09 73.99,-54.55 56.26,-10.99 99.14,-16.06 146.09,16.99 18.35,12.93 40.59,24.92 30.71,46.35 -33.74,73.13 -13.11,198.04 5.41,270.49"
         style="fill:#e96759;fill-opacity:1;fill-rule:nonzero;stroke:none"
         id="path122" />
      <path
         d="m 3686.28,2756.25 c -0.01,0 -0.02,0 -0.03,0 -0.04,1.16 -0.1,2.31 -0.16,3.47 0.07,-1.16 0.14,-2.32 0.19,-3.47"
         style="fill:#313d43;fill-opacity:1;fill-rule:nonzero;stroke:none"
         id="path124" />
      <path
         d="m 3697.37,2755.2 c -3.82,0 -7.54,0.34 -11.09,1.05 -0.05,1.15 -0.12,2.31 -0.19,3.47 -0.6,10.73 -2.15,21.71 -4.28,32.7 14.67,-4.81 30.06,-7.39 45.68,-7.39 14.78,0 29.78,2.31 44.58,7.2 -0.32,-0.84 -0.63,-1.65 -0.95,-2.48 -18.81,-19.9 -48.58,-34.55 -73.75,-34.55"
         style="fill:#b25348;fill-opacity:1;fill-rule:nonzero;stroke:none"
         id="path126" />
      <path
         d="m 3918.09,3042.23 c -27.13,-113.38 -37.25,-181.18 -105.46,-229.36 -102.62,-72.48 -234.93,6.14 -242.23,125.66 -6.57,107.58 38.9,274.93 159.12,299.87 118.44,24.57 215.7,-82.78 188.57,-196.17"
         style="fill:#e96759;fill-opacity:1;fill-rule:nonzero;stroke:none"
         id="path128" />
      <path
         d="m 3593.3,2956.22 c 0,0 45.88,4.55 171.66,-8.39 -18.82,-32.1 -49.64,-56.71 -113.98,-49.54 -64.35,7.16 -57.68,57.93 -57.68,57.93"
         style="fill:#ffffff;fill-opacity:1;fill-rule:nonzero;stroke:none"
         id="path130" />
      <path
         d="m 3901.08,3258.42 c -114.22,70.08 -266.91,33.22 -293.54,-42.76 0,0 26.96,17.22 54.12,11.77 -22.94,-11.43 -54.15,-39.29 -42.7,-75.59 27.74,32.43 56.78,33.34 56.78,33.34 0,0 21.15,-39.58 89.35,-48.84 -5.13,18.34 -7.87,36.12 -7.87,36.12 0,0 29.88,-64.82 104.24,-76.39 -19.65,-21.75 -26.07,-100.84 23.18,-131.87 69.94,4.48 127.86,27.91 123.91,70.9 8.01,-16.64 13.14,-32.47 13.14,-32.47 0,0 44.41,59.14 -8.22,126.71 25.26,31.49 -28.32,77.5 -112.39,129.08"
         style="fill:#17282f;fill-opacity:1;fill-rule:nonzero;stroke:none"
         id="path132" />
      <path
         d="m 3590.04,3113.65 c 0,0 -24.09,-48.49 -20.16,-84.8 26.92,-0.04 91.13,9.42 91.13,9.42 0,0 36.64,-33.3 79.42,-44.44 42.78,-11.14 182.11,-1.79 182.11,-1.79 l 5.77,40.31 c 0,0 -186.97,61.22 -259.18,73.93 -72.2,12.71 -79.09,7.37 -79.09,7.37"
         style="fill:#17282f;fill-opacity:1;fill-rule:nonzero;stroke:none"
         id="path134" />
      <path
         d="m 3952.7,2919.91 c -19.18,-24.78 -48.09,-38.29 -73.77,-41 -38.65,-4.07 -51.85,32.11 -35.98,65.25 14.28,29.83 51.59,67.89 87.91,56.57 35.78,-11.14 43.77,-52.48 21.84,-80.82"
         style="fill:#e96759;fill-opacity:1;fill-rule:nonzero;stroke:none"
         id="path136" />
      <path
         d="m 3741.68,3051.12 c -1.63,-9.33 -7.91,-15.99 -14,-14.87 -6.11,1.13 -9.73,9.61 -8.1,18.95 1.65,9.34 7.92,15.99 14.02,14.87 6.1,-1.13 9.72,-9.61 8.08,-18.95"
         style="fill:#ffffff;fill-opacity:1;fill-rule:nonzero;stroke:none"
         id="path138" />
      <path
         d="m 3629.9,3072.82 c -1.64,-9.34 -7.91,-16 -14.01,-14.87 -6.1,1.12 -9.73,9.6 -8.09,18.94 1.63,9.34 7.91,16 14.01,14.87 6.11,-1.12 9.72,-9.61 8.09,-18.94"
         style="fill:#ffffff;fill-opacity:1;fill-rule:nonzero;stroke:none"
         id="path140" />
      <path
         d="m 3670.98,3072.86 c 0,0 -30.66,-49.96 -58.58,-71.64 13.81,-18.47 43.13,-16.59 43.13,-16.59 l 15.45,88.23"
         style="fill:#d8413b;fill-opacity:1;fill-rule:nonzero;stroke:none"
         id="path142" />
      <path
         d="m 3730.8,3125.1 c -0.72,-0.58 -1.3,-1.35 -1.67,-2.27 -1.12,-2.85 0.3,-6.07 3.17,-7.19 28.83,-11.26 50.02,3.34 50.91,3.96 2.52,1.78 3.09,5.24 1.29,7.74 -1.79,2.49 -5.27,3.07 -7.78,1.32 -0.69,-0.48 -17.34,-11.68 -40.34,-2.7 -1.95,0.76 -4.07,0.36 -5.58,-0.86"
         style="fill:#17282f;fill-opacity:1;fill-rule:nonzero;stroke:none"
         id="path144" />
      <path
         d="m 3628.18,3132.64 c -0.36,1.77 -1.57,3.32 -3.37,4.03 -22.74,9.06 -27.02,28.66 -27.19,29.49 -0.62,3 -3.55,4.94 -6.55,4.31 -2.99,-0.63 -4.95,-3.56 -4.36,-6.57 0.24,-1.08 5.43,-26.26 33.94,-37.61 2.85,-1.14 6.08,0.27 7.24,3.14 0.42,1.06 0.5,2.17 0.29,3.21"
         style="fill:#17282f;fill-opacity:1;fill-rule:nonzero;stroke:none"
         id="path146" />
      <path
         d="m 4104.99,2531.14 c 9.79,-20.4 18.27,-38.66 26.65,-58.16 8.44,-19.2 16.41,-38.55 24.14,-58.05 15.68,-38.91 29.73,-78.61 43.08,-119.08 12.8,-40.67 25.04,-82.01 34.46,-125.7 4.68,-21.91 8.89,-44.31 12.06,-67.97 3.14,-23.7 5.49,-48.46 4.66,-76.79 -0.45,-14.21 -1.59,-29.36 -4.84,-46.61 -1.71,-8.71 -3.79,-17.71 -7.13,-27.71 l -2.57,-7.43 -3.23,-7.93 c -2.3,-5.64 -4.41,-9.35 -6.68,-13.79 l -4.93,-8.79 c -2.18,-3.63 -4.38,-7.36 -6.65,-10.82 -4.55,-6.94 -9.27,-13.49 -14.1,-19.55 -9.62,-12.2 -19.84,-22.63 -30.05,-32.02 -41.01,-37.16 -82.48,-59.86 -123.8,-78.9 -20.56,-9.58 -41.3,-17.56 -61.99,-24.84 -20.63,-7.4 -41.35,-13.73 -62.14,-19.29 -20.71,-5.78 -41.6,-10.48 -62.5,-14.77 -21.18,-4.21 -41.46,-7.48 -64.14,-10.21 -30.18,-3.63 -57.58,17.89 -61.21,48.06 -2.82,23.38 9.47,45.11 29.19,55.39 l 2.79,1.42 c 67.69,35.1 138.18,72.26 196.28,113.52 28.74,20.55 55.34,42.74 71.12,63.09 3.87,5.02 6.92,9.84 9.24,13.88 1.17,2.05 2,3.91 2.71,5.59 l 0.82,2.31 1.85,4.73 -0.36,-0.08 -0.46,-0.88 -0.31,-0.22 c -0.3,-0.38 -0.35,0.52 -0.36,1.74 0,2.65 -0.05,7.7 -0.55,13.64 -1.03,12.01 -3.26,27.45 -6.62,43.52 -3.34,16.14 -7.75,33.17 -12.72,50.41 -10.12,34.55 -21.78,70.31 -35.13,105.92 -12.81,35.82 -27.25,71.6 -41.59,107.53 l -22.14,53.71 -22.17,52.52 -0.98,2.33 c -23.6,55.91 2.59,120.37 58.5,143.96 54.19,22.88 116.53,-1.28 141.8,-53.68"
         style="fill:#17282f;fill-opacity:1;fill-rule:nonzero;stroke:none"
         id="path148" />
      <path
         d="m 3788.65,1702.33 c -27.46,0 -51.21,20.52 -54.57,48.46 -0.27,2.24 -0.4,4.46 -0.4,6.66 0,20.78 11.76,39.43 29.59,48.73 l 2.79,1.42 c 67.69,35.1 138.18,72.26 196.28,113.52 28.74,20.55 55.34,42.74 71.12,63.09 3.87,5.02 6.92,9.84 9.24,13.88 1.17,2.05 2,3.91 2.71,5.59 l 0.82,2.31 1.85,4.73 -0.36,-0.08 -0.46,-0.88 -0.31,-0.22 c -0.05,-0.06 -0.09,-0.09 -0.13,-0.09 -0.18,0 -0.22,0.8 -0.23,1.83 0,2.65 -0.05,7.7 -0.55,13.64 -1.03,12.01 -3.26,27.45 -6.62,43.52 -3.34,16.14 -7.75,33.17 -12.72,50.41 -10.12,34.55 -21.78,70.31 -35.13,105.92 -12.81,35.82 -27.25,71.6 -41.59,107.53 l -22.14,53.71 -22.17,52.52 -0.98,2.33 c -5.9,13.97 -8.69,28.49 -8.68,42.76 0.03,42.82 25.24,83.5 67.18,101.2 13.89,5.87 28.32,8.64 42.51,8.64 41.2,0 80.5,-23.35 99.29,-62.32 9.79,-20.4 18.27,-38.66 26.65,-58.16 8.44,-19.2 16.41,-38.55 24.14,-58.05 15.68,-38.91 29.73,-78.61 43.08,-119.08 12.8,-40.67 25.04,-82.01 34.46,-125.7 4.68,-21.91 8.89,-44.31 12.06,-67.97 2.71,-20.46 4.83,-41.71 4.83,-65.36 0,-3.75 -0.06,-7.55 -0.17,-11.43 -0.45,-14.21 -1.59,-29.36 -4.84,-46.61 -1.71,-8.71 -3.79,-17.71 -7.13,-27.71 l -2.57,-7.43 -3.23,-7.93 c -2.3,-5.64 -4.41,-9.35 -6.68,-13.79 l -4.93,-8.79 c -2.18,-3.63 -4.38,-7.36 -6.65,-10.82 -4.55,-6.94 -9.27,-13.49 -14.1,-19.55 -9.62,-12.2 -19.84,-22.63 -30.05,-32.02 -41.01,-37.16 -82.48,-59.86 -123.8,-78.9 -20.56,-9.58 -41.3,-17.56 -61.99,-24.84 -20.63,-7.4 -41.35,-13.73 -62.14,-19.29 -20.71,-5.78 -41.6,-10.48 -62.5,-14.77 -21.18,-4.21 -41.46,-7.48 -64.14,-10.21 -2.23,-0.27 -4.45,-0.4 -6.64,-0.4"
         style="fill:#405158;fill-opacity:1;fill-rule:nonzero;stroke:none"
         id="path150" />
      <path
         d="m 3762.46,1813.85 -81.3,-1.45 42.43,-136.28 c 0,0 40.28,5.63 71.82,23.38 27.23,15.33 37.04,49.84 23.16,77.84 l -1.69,3.42 c -10.22,20.62 -31.41,33.5 -54.42,33.09"
         style="fill:#e96759;fill-opacity:1;fill-rule:nonzero;stroke:none"
         id="path152" />
      <path
         d="m 3594.63,1724.11 22.93,-45.25 c 9.12,-18.02 29.95,-26.77 49.21,-20.69 l 56.82,17.95 -42.43,136.28 -67.6,-32.48 c -20.84,-10.01 -29.38,-35.19 -18.93,-55.81"
         style="fill:#e96759;fill-opacity:1;fill-rule:nonzero;stroke:none"
         id="path154" />
      <path
         d="m 3684.76,2605.31 c 14.67,25.82 51.86,94.48 86.36,184.44 0.96,1.02 1.9,2.06 2.81,3.11 12.41,4.28 24.69,10.41 36.58,18.53 -49.38,-99.76 -107.55,-181.4 -125.75,-206.08"
         style="fill:#b25348;fill-opacity:1;fill-rule:nonzero;stroke:none"
         id="path156" />
      <path
         d="m 3771.12,2789.75 c 0.32,0.83 0.63,1.64 0.95,2.48 0.62,0.2 1.24,0.41 1.86,0.63 -0.91,-1.05 -1.85,-2.09 -2.81,-3.11"
         style="fill:#893f38;fill-opacity:1;fill-rule:nonzero;stroke:none"
         id="path158" />
      <path
         d="m 3772.07,2792.23 c 22.3,58.5 43.38,125.86 56.38,196.2 10.95,0.11 21.86,0.37 32.15,0.69 2.17,-3.66 4.64,-7.15 7.41,-10.43 -10.82,-10.58 -19.61,-23.15 -25.06,-34.53 -9.67,-20.2 -8.55,-41.53 2.56,-54.18 -10.58,-26.94 -22.51,-53.34 -35,-78.59 -11.89,-8.12 -24.17,-14.25 -36.58,-18.53 -0.62,-0.22 -1.24,-0.43 -1.86,-0.63"
         style="fill:#b25348;fill-opacity:1;fill-rule:nonzero;stroke:none"
         id="path160" />
      <path
         d="m 3868.01,2978.69 c -2.77,3.28 -5.24,6.77 -7.41,10.43 5.59,0.17 10.99,0.36 16.13,0.57 -0.3,-1.34 -0.61,-2.69 -0.92,-4.03 -2.7,-2.19 -5.3,-4.53 -7.8,-6.97"
         style="fill:#111d23;fill-opacity:1;fill-rule:nonzero;stroke:none"
         id="path162" />
      <path
         d="m 3847.64,3057.87 c -3.08,0.95 -6.22,1.92 -9.39,2.89 0.79,14.46 0.45,28.24 -0.89,41.29 7.45,-2.59 15.48,-4.64 24.1,-5.98 -6.72,-7.44 -11.89,-21.57 -13.82,-38.2"
         style="fill:#b25348;fill-opacity:1;fill-rule:nonzero;stroke:none"
         id="path164" />
      <path
         d="m 3885.84,3045.96 c -11.28,3.56 -24.24,7.62 -38.2,11.91 1.93,16.63 7.1,30.76 13.82,38.2 -8.62,1.34 -16.65,3.39 -24.1,5.98 -8.43,82.2 -56.6,136.27 -113.09,156.97 -10.37,3.79 -13.26,14.86 -9.61,23.16 63.09,-15.23 172.73,-62.18 172.76,-204.6 0,-2.97 -0.05,-5.99 -0.15,-9.04 -0.23,-7.47 -0.72,-15 -1.43,-22.58"
         style="fill:#111d23;fill-opacity:1;fill-rule:nonzero;stroke:none"
         id="path166" />
      <path
         d="m 3828.45,2988.43 c 3.24,17.53 5.98,35.22 8.11,53.03 0.78,6.56 1.34,12.99 1.69,19.3 3.17,-0.97 6.31,-1.94 9.39,-2.89 13.96,-4.29 26.92,-8.35 38.2,-11.91 -1.75,-18.51 -4.87,-37.32 -9.11,-56.27 -5.14,-0.21 -10.54,-0.4 -16.13,-0.57 -10.29,-0.32 -21.2,-0.58 -32.15,-0.69"
         style="fill:#111d23;fill-opacity:1;fill-rule:nonzero;stroke:none"
         id="path168" />
      <path
         d="m 3845.51,2889.98 c -11.11,12.65 -12.23,33.98 -2.56,54.18 5.45,11.38 14.24,23.95 25.06,34.53 2.5,2.44 5.1,4.78 7.8,6.97 -7.41,-31.95 -17.93,-64.18 -30.3,-95.68"
         style="fill:#b25348;fill-opacity:1;fill-rule:nonzero;stroke:none"
         id="path170" />
      <path
         d="m 3679.02,2597.65 c 0,0 201.68,262.25 208.25,470.89 6.58,208.64 -215.98,220.77 -215.98,220.77 0,0 69.45,54.55 240.79,22.21 171.59,-32.39 226.64,-264.71 179.37,-432.44 -47.27,-167.73 -149.44,-281.81 -149.44,-281.81 l -279.83,-78.7 16.84,79.08"
         style="fill:#17282f;fill-opacity:1;fill-rule:nonzero;stroke:none"
         id="path172" />
      <path
         d="m 3662.18,2518.57 16.84,79.08 c 0,0 201.68,262.25 208.25,470.89 0.1,3.05 0.15,6.07 0.15,9.04 -0.04,199.95 -216.13,211.73 -216.13,211.73 0,0 41.33,32.46 138.85,32.46 28.92,0 62.75,-2.85 101.94,-10.25 132.54,-25.02 195.55,-169.34 195.57,-311.03 0.01,-41.74 -5.45,-83.24 -16.2,-121.41 -47.27,-167.73 -149.44,-281.81 -149.44,-281.81 l -279.83,-78.7"
         style="fill:#6c7a7f;fill-opacity:1;fill-rule:nonzero;stroke:none"
         id="path174" />
      <path
         d="M 1164.14,857.801 V 2073.24 c 0,57.73 46.8,104.54 104.54,104.54 h 1957.44 c 57.73,0 104.53,-46.81 104.53,-104.54 V 857.801 c 0,-57.742 -46.8,-104.539 -104.53,-104.539 H 1268.68 c -57.74,0 -104.54,46.797 -104.54,104.539"
         style="fill:#406fbf;fill-opacity:1;fill-rule:nonzero;stroke:none"
         id="path176" />
      <path
         d="m 1262.76,714.129 c -54.38,0 -110.61,-14.59 -125.52,-32.75 L 736.324,232.609 c -21.183,-25.777 15.09,-86.199 81.18,-86.199 H 3210.8 c 66.09,0 119.85,21.281 119.85,47.059 v 487.91 c 0,18.16 -44.23,32.75 -98.61,32.75 H 1262.76"
         style="fill:#406fbf;fill-opacity:1;fill-rule:nonzero;stroke:none"
         id="path178" />
      <path
         d="M 3210.8,146.41 H 817.504 c -53.309,0 -87.219,39.309 -87.223,68.051 0,0.769 0.024,1.539 0.074,2.301 1.774,-18.114 35.278,-31.223 87.149,-31.223 H 3210.8 c 66.09,0 119.85,21.293 119.85,47.07 v -39.14 c 0,-25.778 -53.76,-47.059 -119.85,-47.059"
         style="fill:#3563b7;fill-opacity:1;fill-rule:nonzero;stroke:none"
         id="path180" />
      <path
         d="m 1262.76,753.262 c -54.38,0 -110.61,-14.59 -125.52,-32.742 L 736.324,232.609 c -21.183,-25.777 15.09,-47.07 81.18,-47.07 H 3210.8 c 66.09,0 119.85,21.293 119.85,47.07 V 720.52 c 0,18.152 -44.23,32.742 -98.61,32.742 H 1262.76"
         style="fill:#406fbf;fill-opacity:1;fill-rule:nonzero;stroke:none"
         id="path182" />
      <path
         d="m 3134.14,437.07 h -2033.3 c -40.75,0 -64.37,12.078 -52.84,26.852 l 168.04,215.41 c 9.8,12.547 47.74,22.648 84.84,22.648 h 1850.89 c 37.1,0 66.76,-10.101 66.24,-22.648 l -8.96,-215.41 c -0.61,-14.774 -34.15,-26.852 -74.91,-26.852"
         style="fill:#3563b7;fill-opacity:1;fill-rule:nonzero;stroke:none"
         id="path184" />
      <path
         d="m 2412.6,232.25 h -758.51 c -18.33,0 -30.04,5.82 -26.16,12.98 l 72.16,133.282 c 3.54,6.527 20.51,11.797 37.92,11.797 h 720.54 c 17.42,0 30.05,-5.27 28.22,-11.797 L 2449.42,245.23 c -2,-7.16 -18.49,-12.98 -36.82,-12.98"
         style="fill:#3563b7;fill-opacity:1;fill-rule:nonzero;stroke:none"
         id="path186" />
      <path
         d="M 3227.81,781.441 H 1266.99 c -41.07,0 -74.67,33.598 -74.67,74.668 V 2074.93 c 0,41.07 33.6,74.67 74.67,74.67 h 1960.82 c 41.07,0 74.67,-33.6 74.67,-74.67 V 856.109 c 0,-41.07 -33.6,-74.668 -74.67,-74.668 M 1696.61,984.43 v 0 h 1101.58 v 655.79 0 l -89.16,57.91 14.6,205.15 -381.65,33.22 -25.74,16.72 c -20.94,13.59 -44.89,20.39 -68.84,20.39 -23.95,0 -47.9,-6.8 -68.84,-20.39 l -3.38,-2.2 -210.9,18.35 -147.11,-44.14 -14.09,-215.86 -106.47,-69.15 v 0 -655.79"
         style="fill:#b8d2ef;fill-opacity:1;fill-rule:nonzero;stroke:none"
         id="path188" />
      <path
         d="m 1696.61,984.43 h 1101.58 v 655.789 H 1696.61 Z"
         style="fill:#406fbf;fill-opacity:1;fill-rule:nonzero;stroke:none"
         id="path190" />
      <path
         d="M 2798.19,984.43 H 1696.61 v 655.79 l 550.79,-357.69 550.79,357.69 v 0 -655.79"
         style="fill:#3b69bb;fill-opacity:1;fill-rule:nonzero;stroke:none"
         id="path192" />
      <path
         d="m 2798.19,1640.22 h -40.92 40.92 m -1060.66,0 h -40.92 v 0 h 40.92 v 0"
         style="fill:#a6c0e8;fill-opacity:1;fill-rule:nonzero;stroke:none"
         id="path194" />
      <path
         d="m 2247.4,1282.53 452.98,294.18 4.52,63.51 h 93.29 L 2247.4,1282.53 m 0,0 -550.79,357.69 h 40.92 61.03 l -4.15,-63.51 452.99,-294.18"
         style="fill:#3766ba;fill-opacity:1;fill-rule:nonzero;stroke:none"
         id="path196" />
      <path
         d="m 2316.24,1953.22 481.95,-313 H 1696.61 l 481.95,313 c 41.87,27.18 95.81,27.18 137.68,0"
         style="fill:#406fbf;fill-opacity:1;fill-rule:nonzero;stroke:none"
         id="path198" />
      <path
         d="m 2757.27,1640.22 h -52.37 v 0 h 52.37 v 0"
         style="fill:#88a1c6;fill-opacity:1;fill-rule:nonzero;stroke:none"
         id="path200" />
      <path
         d="m 1798.56,1640.22 h -61.03 61.03 v 0"
         style="fill:#88a1c6;fill-opacity:1;fill-rule:nonzero;stroke:none"
         id="path202" />
      <path
         d="m 2757.27,1640.22 h -52.37 l 2.32,32.51 50.05,-32.51 m -958.71,0 h -61.03 l 63.73,41.39 -2.7,-41.39 m 495.78,300.42 -78.84,6.87 c 10.31,3.66 21.1,5.48 31.9,5.48 16.19,0 32.39,-4.11 46.94,-12.35"
         style="fill:#3a69bb;fill-opacity:1;fill-rule:nonzero;stroke:none"
         id="path204" />
      <path
         d="m 2292.39,1883.51 c -4.06,0 -7.36,3.29 -7.36,7.36 v 332.74 c 0,4.06 3.3,7.36 7.36,7.36 4.07,0 7.36,-3.3 7.36,-7.36 v -332.74 c 0,-4.07 -3.29,-7.36 -7.36,-7.36"
         style="fill:#17282f;fill-opacity:1;fill-rule:nonzero;stroke:none"
         id="path206" />
      <path
         d="m 2292.39,2262.37 c -8.66,0 -15.7,-7.04 -15.7,-15.7 0,-8.66 7.04,-15.7 15.7,-15.7 8.66,0 15.7,7.04 15.7,15.7 0,8.66 -7.04,15.7 -15.7,15.7 z m 0,-46.12 c -16.77,0 -30.42,13.64 -30.42,30.42 0,16.77 13.65,30.42 30.42,30.42 16.78,0 30.42,-13.65 30.42,-30.42 0,-16.78 -13.64,-30.42 -30.42,-30.42"
         style="fill:#17282f;fill-opacity:1;fill-rule:nonzero;stroke:none"
         id="path208" />
      <path
         d="m 1964.28,1969.37 -147.11,-44.14 -22.76,-348.52 452.99,-294.18 452.98,294.18 23.25,326.57 -759.35,66.09"
         style="fill:#ffffff;fill-opacity:1;fill-rule:nonzero;stroke:none"
         id="path210" />
      <path
         d="m 2270.15,1433.72 c -4.08,0 -8.18,0.16 -12.31,0.47 -61.15,4.61 -111.71,42.71 -135.06,94.89 -10.67,23.7 -15.75,50.31 -13.65,78.09 6.38,84.71 77.08,149.18 160.66,149.18 4.08,0 8.18,-0.16 12.31,-0.47 88.85,-6.7 155.42,-84.13 148.72,-172.98 -2.09,-27.78 -11.11,-53.33 -25.22,-75.15 -28.82,-44.84 -79.2,-74.03 -135.45,-74.03"
         style="fill:#7da6dd;fill-opacity:1;fill-rule:nonzero;stroke:none"
         id="path212" />
      <path
         d="m 2390.35,1515.57 c -27.47,-42.73 -76.97,-69.47 -131.3,-65.37 -54.34,4.1 -99.27,37.96 -120.02,84.33 37.8,21.32 82.04,32.1 128.53,28.59 46.5,-3.51 88.62,-20.8 122.79,-47.55"
         style="fill:#ffffff;fill-opacity:1;fill-rule:nonzero;stroke:none"
         id="path214" />
      <path
         d="m 2337.19,1637.23 c -2.65,-35.16 -33.31,-61.52 -68.47,-58.87 -35.17,2.66 -61.52,33.31 -58.87,68.47 2.65,35.17 33.31,61.52 68.47,58.87 35.17,-2.65 61.52,-33.31 58.87,-68.47"
         style="fill:#ffffff;fill-opacity:1;fill-rule:nonzero;stroke:none"
         id="path216" />
      <path
         d="m 2220.14,1811.26 c -38.37,0 -70.49,27.29 -77.97,63.48 l -7.79,-7.8 c -2.88,-2.88 -7.54,-2.88 -10.42,0 -2.87,2.87 -2.87,7.53 0,10.41 l 18.73,18.72 c 2.1,2.11 5.27,2.74 8.02,1.6 2.75,-1.14 4.54,-3.82 4.54,-6.8 0,-35.78 29.11,-64.89 64.89,-64.89 4.06,0 7.36,-3.29 7.36,-7.36 0,-4.06 -3.3,-7.36 -7.36,-7.36"
         style="fill:#17282f;fill-opacity:1;fill-rule:nonzero;stroke:none"
         id="path218" />
      <path
         d="m 1964.28,1969.37 -25.62,-78.5 -121.49,34.36"
         style="fill:#dadbd8;fill-opacity:1;fill-rule:nonzero;stroke:none"
         id="path220" />
      <path
         d="m 1964.28,1969.37 -12.41,-64.47 -134.7,20.33"
         style="fill:#ededeb;fill-opacity:1;fill-rule:nonzero;stroke:none"
         id="path222" />
      <path
         d="M 2153.47,1343.62 1696.61,984.43 h 1101.58 l -456.87,359.19 c -55.11,43.34 -132.73,43.34 -187.85,0"
         style="fill:#406fbf;fill-opacity:1;fill-rule:nonzero;stroke:none"
         id="path224" />
    </g>
  </g>
</svg>
