<?xml version="1.0" encoding="UTF-8" standalone="no"?>
<!-- Created with Inkscape (http://www.inkscape.org/) -->

<svg
   version="1.1"
   id="svg2"
   width="3333.3333"
   height="3333.3333"
   viewBox="0 0 3333.3333 3333.3333"
   sodipodi:docname="Data_security_24.eps"
   xmlns:inkscape="http://www.inkscape.org/namespaces/inkscape"
   xmlns:sodipodi="http://sodipodi.sourceforge.net/DTD/sodipodi-0.dtd"
   xmlns="http://www.w3.org/2000/svg"
   xmlns:svg="http://www.w3.org/2000/svg">
  <defs
     id="defs6">
    <clipPath
       clipPathUnits="userSpaceOnUse"
       id="clipPath268">
      <path
         d="m 12415.8,5994.5 c -306.4,0 -806.4,256.3 -1344.8,512.5 -538.4,256.3 -1115.46,512.5 -1576.03,512.5 -175.79,0 -334.58,-37.3 -467.84,-126.2 166.5,245.9 336.44,422.7 501.22,512.4 86.12,46.8 210.46,89.5 364.54,127.6 414.01,-417.6 1060.91,-870.4 1605.81,-1169.1 83.8,-48.2 165.1,-93.2 242.4,-134.3 145.8,-77.7 549.5,-220.8 738.5,-225.2 3.6,-1.6 7.5,-3 11.5,-4.2 -23.6,-4.1 -48.7,-6 -75.3,-6 m 478.4,102.6 c 81.2,36.4 153,73.7 195.3,96.6 582.3,313.6 1408,799.4 1865.2,1318.3 98.5,-32.1 181.1,-67.5 244.9,-106.3 109.5,-67.3 221.7,-174.2 333.8,-314 -1117.4,-88.7 -1943.5,-745 -2639.2,-994.6"
         id="path266" />
    </clipPath>
  </defs>
  <sodipodi:namedview
     id="namedview4"
     pagecolor="#ffffff"
     bordercolor="#000000"
     borderopacity="0.25"
     inkscape:showpageshadow="2"
     inkscape:pageopacity="0.0"
     inkscape:pagecheckerboard="0"
     inkscape:deskcolor="#d1d1d1" />
  <g
     id="g8"
     inkscape:groupmode="layer"
     inkscape:label="ink_ext_XXXXXX"
     transform="matrix(1.3333333,0,0,-1.3333333,0,3333.3333)">
    <g
       id="g10"
       transform="scale(0.1)">
      <path
         d="M 0,0 H 25000 V 25000 H 0 Z"
         style="fill:#ffffff;fill-opacity:1;fill-rule:nonzero;stroke:none"
         id="path12" />
      <path
         d="m 12276.9,20415 -2.2,131.5 c 66.1,1.1 132.8,1.4 198.8,0.9 l -0.9,-131.5 c -64.9,0.5 -130.6,0.2 -195.7,-0.9 z m 586.7,-11.4 c -64.9,3.6 -130.6,6.5 -195.4,8.5 l 4.1,131.5 c 65.9,-2.1 132.7,-5 198.6,-8.7 z m -977.2,-4.7 -8.6,131.2 c 65.8,4.3 132.6,7.9 198.5,10.6 l 5.4,-131.4 c -64.8,-2.6 -130.5,-6.2 -195.3,-10.4 z m 1367,-26.8 c -64.5,6.8 -130,12.9 -194.7,18.2 l 10.6,131 c 65.8,-5.3 132.4,-11.5 197.9,-18.4 z m -1756.5,-8.5 -15.1,130.7 c 65.4,7.5 132,14.4 197.8,20.3 l 11.8,-131 c -64.7,-5.8 -130.2,-12.5 -194.5,-20 z m 2144.4,-42.1 c -64.1,10 -129.2,19.3 -193.6,27.7 l 17,130.4 c 65.5,-8.5 131.7,-18 196.8,-28.2 z m -2531.8,-12.3 -21.5,129.8 c 65.1,10.7 131.2,20.9 196.6,30 l 18.3,-130.2 c -64.3,-9 -129.4,-19 -193.4,-29.6 z m 2916.6,-57.4 c -63.4,13.1 -128,25.6 -192,37.2 l 23.5,129.4 c 65,-11.7 130.7,-24.5 195.2,-37.9 z m -3300.7,-16.1 -27.9,128.5 c 64.4,14 130,27.4 194.8,39.8 l 24.7,-129.2 c -63.7,-12.2 -128.2,-25.3 -191.6,-39.1 z m 3681.7,-72.7 c -62.8,16.3 -126.7,32 -190,46.8 l 29.9,128 c 64.4,-15 129.3,-31 193.1,-47.5 z m -4061.7,-19.8 -34.3,126.9 c 63.7,17.2 128.5,33.9 192.6,49.5 l 31.1,-127.8 c -63.1,-15.4 -126.8,-31.7 -189.4,-48.6 z m 4437.7,-87.8 c -62,19.4 -125,38.3 -187.4,56.1 l 36.2,126.4 c 63.4,-18.1 127.5,-37.3 190.5,-57 z m -4812.65,-23.5 -40.56,125 c 62.69,20.4 126.61,40.2 189.91,59 l 37.4,-126 c -62.2,-18.5 -125.1,-38 -186.75,-58 z m 5184.15,-103.2 c -61.1,22.5 -123.3,44.6 -185,65.7 l 42.5,124.4 c 62.7,-21.4 125.9,-43.8 188,-66.7 z m -5553.09,-26.7 -46.74,122.9 c 61.76,23.5 124.6,46.5 186.74,68.4 l 43.66,-124.1 c -61.13,-21.5 -122.92,-44.1 -183.66,-67.2 z m 5917.59,-118.3 c -60,25.6 -121,50.7 -181.4,74.7 l 48.6,122.2 c 61.4,-24.4 123.4,-49.9 184.4,-76 z m -6278.99,-29.5 -52.78,120.5 c 60.2,26.3 121.59,52.4 182.47,77.2 l 49.78,-121.7 c -59.88,-24.5 -120.26,-50 -179.47,-76 z m 6635.59,-133.4 c -58.6,28.5 -118.2,56.7 -177.3,83.6 l 54.6,119.7 c 60.1,-27.5 120.7,-56.1 180.3,-85.1 z m -6988.75,-31.9 -58.68,117.7 c 58.95,29.4 119.02,58.4 178.52,86.3 l 55.74,-119.1 c -58.53,-27.4 -117.6,-56 -175.58,-84.9 z m 7336.75,-148.5 c -57,31.4 -115.2,62.5 -172.9,92.3 l 60.5,116.8 c 58.7,-30.4 117.8,-62 175.8,-93.9 z m -7681.5,-34.2 -64.43,114.7 c 57.36,32.2 115.94,64.2 174.12,95 l 61.57,-116.2 c -57.22,-30.3 -114.85,-61.8 -171.26,-93.5 z m 8019.9,-163.1 c -55.3,34.1 -111.8,68 -167.9,100.7 l 66.2,113.6 c 57.1,-33.3 114.5,-67.7 170.8,-102.4 z m -8355.38,-36.4 -70,111.3 c 55.68,35 112.64,69.9 169.3,103.6 l 67.23,-113.1 c -55.73,-33.1 -111.76,-67.4 -166.53,-101.8 z m 8683.58,-177.4 c -53.5,36.8 -108.3,73.4 -162.8,108.9 l 71.8,110.2 c 55.4,-36.1 111.1,-73.3 165.5,-110.7 z m -9008.95,-38.6 -75.4,107.8 c 53.99,37.7 109.19,75.4 164.05,111.8 l 72.72,-109.6 c -53.97,-35.8 -108.27,-72.8 -161.37,-110 z m 9326.05,-191 c -51.7,39.4 -104.6,78.7 -157.1,116.7 l 77.1,106.5 c 53.4,-38.6 107.2,-78.5 159.7,-118.6 z m -9640.54,-40.8 -80.6,103.9 c 52.03,40.4 105.33,80.7 158.41,119.8 l 78.03,-105.8 c -52.23,-38.5 -104.66,-78.2 -155.84,-117.9 z m 9945.84,-204.1 c -49.6,41.9 -100.5,83.7 -151.1,124.3 l 82.3,102.6 c 51.5,-41.3 103.2,-83.8 153.6,-126.4 z m -10248.67,-43 -85.61,99.9 c 50.07,42.9 101.35,85.8 152.39,127.5 l 83.14,-101.9 c -50.22,-41 -100.66,-83.2 -149.92,-125.5 z m 10541.57,-216.5 c -47.5,44.2 -96.2,88.4 -144.8,131.6 l 87.2,98.4 c 49.4,-43.9 98.9,-88.9 147.2,-133.8 z m -10832.01,-45.2 -90.41,95.5 c 47.96,45.4 97.08,90.8 146.01,134.8 l 88.03,-97.6 c -48.13,-43.4 -96.45,-88 -143.63,-132.7 z m 11111.61,-228.3 c -45.2,46.5 -91.7,93.1 -138.1,138.5 l 91.9,94 c 47.2,-46.2 94.4,-93.5 140.4,-140.8 z m -11388.94,-47.5 -94.99,91 c 45.69,47.7 92.54,95.4 139.25,141.9 l 92.73,-93.3 c -45.96,-45.7 -92.04,-92.6 -136.99,-139.6 z M 18351,17735 c -42.9,48.6 -87,97.4 -131.1,145 l 96.4,89.4 c 44.9,-48.4 89.7,-98 133.3,-147.4 z m -11918.28,-49.8 -99.33,86.1 c 43.2,49.9 87.66,99.9 132.15,148.7 l 97.19,-88.6 c -43.76,-48 -87.5,-97.2 -130.01,-146.2 z m 12169.58,-249.6 c -40.5,50.7 -82.1,101.6 -123.8,151.3 l 100.7,84.5 c 42.4,-50.5 84.7,-102.2 125.8,-153.7 z m -12418.66,-52.3 -103.46,81.2 c 40.75,51.9 82.72,104.1 124.73,155 l 101.43,-83.7 c -41.33,-50.1 -82.61,-101.4 -122.7,-152.5 z m 12654.76,-258.9 c -37.9,52.6 -77,105.5 -116.1,157 l 104.7,79.5 c 39.8,-52.4 79.5,-106.1 118.1,-159.6 z m -12888.77,-54.9 -107.33,75.9 c 38.12,53.9 77.48,108.1 116.99,161.1 l 105.42,-78.6 c -38.86,-52.2 -77.58,-105.5 -115.08,-158.4 z M 19058.9,16802 c -35.2,54.4 -71.6,109 -108.2,162.5 l 108.5,74.3 c 37.2,-54.4 74.3,-110 110.1,-165.3 z m -13327.58,-57.6 -110.94,70.6 c 35.47,55.7 72.12,111.8 108.94,166.6 l 109.17,-73.3 c -36.21,-53.9 -72.27,-109.1 -107.17,-163.9 z m 13531.88,-275.1 c -32.6,56.2 -66.3,112.6 -100.1,167.6 l 112.1,68.8 c 34.4,-55.9 68.6,-113.3 101.7,-170.4 z m -13733.92,-60.5 -114.3,65 c 32.69,57.5 66.54,115.3 100.6,171.9 l 112.66,-67.9 c -33.5,-55.6 -66.8,-112.5 -98.96,-169 z m 13921.42,-281.7 c -29.7,57.5 -60.5,115.5 -91.6,172.3 l 115.3,63.1 c 31.6,-57.7 63,-116.6 93.2,-175.1 z m -14106.65,-63.7 -117.39,59.3 c 29.8,59 60.75,118.5 91.99,176.7 l 115.88,-62.2 c -30.73,-57.3 -61.17,-115.7 -90.48,-173.8 z M 19621,15776.2 c -26.9,59 -54.8,118.4 -83,176.5 l 118.3,57.4 c 28.7,-59.1 57.1,-119.4 84.4,-179.4 z m -14444.86,-67.1 -120.2,53.4 c 26.85,60.5 54.82,121.4 83.13,181.1 l 118.83,-56.3 c -27.85,-58.7 -55.35,-118.7 -81.76,-178.2 z m 14597.46,-291.5 c -23.8,60 -48.7,120.6 -74.1,180.2 l 121,51.5 c 25.8,-60.6 51.1,-122.2 75.3,-183.3 z m -14747.58,-70.8 -122.71,47.2 c 23.79,61.8 48.7,124.1 74.03,185.2 l 121.49,-50.3 c -24.91,-60.1 -49.41,-121.4 -72.81,-182.1 z m 14882.68,-296.3 c -20.9,61.5 -42.9,123.5 -65.3,184.4 l 123.4,45.4 c 22.8,-61.9 45.1,-125 66.4,-187.5 z m -15014.6,-73.3 -124.92,41.1 c 20.67,62.8 42.45,126.3 64.73,188.7 l 123.84,-44.2 c -21.91,-61.4 -43.32,-123.9 -63.65,-185.6 z m 15131.2,-300 c -17.8,62.5 -36.7,125.5 -56,187.4 l 125.5,39.2 c 19.7,-62.9 38.8,-127 57,-190.5 z m -15244.34,-75.2 -126.8,34.8 c 17.48,63.7 35.99,128 55.02,191.1 l 125.9,-38 c -18.71,-62.1 -36.92,-125.3 -54.12,-187.9 z m 15342.24,-303.5 c -14.7,63.2 -30.4,127.1 -46.6,190 l 127.3,32.9 c 16.5,-63.9 32.4,-128.9 47.4,-193.2 z m -15436.35,-76.1 -128.39,28.4 c 14.25,64.3 29.54,129.4 45.44,193.6 l 127.64,-31.6 c -15.64,-63.1 -30.68,-127.2 -44.69,-190.4 z m 15515.25,-307 c -11.5,63.9 -24,128.5 -37.1,192.1 l 128.8,26.5 c 13.3,-64.6 26,-130.3 37.7,-195.2 z m -15590.39,-76.9 -129.64,22.1 c 11.06,65 23.09,130.8 35.77,195.6 l 129.05,-25.3 c -12.47,-63.7 -24.31,-128.4 -35.18,-192.4 z M 20262,13528.9 c -8.4,64.3 -17.6,129.4 -27.6,193.7 l 130,20.1 c 10.1,-65.3 19.5,-131.5 28,-196.9 z m -15706.31,-77.5 -130.58,15.6 c 7.84,65.6 16.6,131.9 26.05,197.2 l 130.14,-18.9 c -9.29,-64.2 -17.91,-129.4 -25.61,-193.9 z m 15746.91,-311.5 c -5.1,64.7 -11.2,130.3 -17.9,194.8 l 130.8,13.7 c 6.8,-65.6 13,-132.2 18.2,-198 z m -15783.77,-77.9 -131.18,9.2 c 4.61,65.9 10.09,132.6 16.3,198.1 l 130.91,-12.3 c -6.11,-64.5 -11.5,-130.1 -16.03,-195 z m 15805.37,-312.7 c -2,64.9 -4.8,130.7 -8.4,195.5 l 131.3,7.2 c 3.6,-65.8 6.5,-132.7 8.5,-198.6 z m -15823.11,-78 -131.48,2.7 c 1.39,66 3.61,132.9 6.6,198.7 l 131.36,-5.9 c -2.94,-64.8 -5.12,-130.6 -6.48,-195.5 z m 15956.01,-368.3 -131.5,3.2 c 1.6,64.9 2.4,130.7 2.4,195.6 0,17.4 -0.1,34.7 -0.2,52 l 131.5,0.9 c 0.1,-17.6 0.2,-35.3 0.2,-52.9 0,-66 -0.8,-132.9 -2.4,-198.8 z m -16086.2,-26.5 c -1.8,65.8 -2.83,132.7 -3.05,198.7 l 131.51,0.5 c 0.21,-65 1.22,-130.8 3,-195.6 z m 16066.9,-370.6 -131.2,9.6 c 4.8,64.8 8.8,130.5 11.9,195.3 l 131.4,-6.4 c -3.2,-65.8 -7.3,-132.6 -12.1,-198.5 z m -16046.27,-26.5 c -5.03,65.7 -9.31,132.4 -12.74,198.4 l 131.33,6.8 c 3.37,-64.9 7.59,-130.6 12.53,-195.2 z m 16007.47,-369.2 -130.5,16 c 7.9,64.4 15.1,129.8 21.4,194.4 l 130.9,-12.8 c -6.4,-65.7 -13.8,-132.2 -21.8,-197.6 z m -15967.4,-26.4 c -8.26,65.4 -15.82,131.9 -22.47,197.6 l 130.83,13.2 c 6.54,-64.6 13.99,-130 22.11,-194.3 z m 15909.1,-366.9 -129.5,22.4 c 11.1,64.1 21.5,129.1 31,193.1 l 130.1,-19.2 c -9.6,-65.2 -20.3,-131.2 -31.6,-196.3 z m -15849.54,-26.2 c -11.5,64.9 -22.34,131 -32.21,196.2 l 130.01,19.7 c 9.72,-64.2 20.39,-129.1 31.69,-193 z m 15771.84,-363.8 -128.2,28.8 c 14.2,63.4 27.9,127.7 40.5,191.4 l 129,-25.7 c -12.9,-64.7 -26.8,-130.2 -41.3,-194.5 z m -15692.87,-26 c -14.69,64.3 -28.8,129.7 -41.91,194.4 l 128.88,26.1 c 12.9,-63.6 26.77,-127.9 41.23,-191.1 z m 15595.97,-359.7 -126.7,35.2 c 17.4,62.5 34.2,126.1 50,189.1 l 127.6,-32.1 c -16.1,-64 -33.3,-128.7 -50.9,-192.2 z m -15497.7,-25.6 c -17.87,63.5 -35.21,128.1 -51.53,192.1 l 127.42,32.5 c 16.06,-63 33.11,-126.5 50.68,-188.9 z m 15381.4,-355.5 -124.8,41.5 c 20.6,61.9 40.6,124.8 59.6,187.1 l 125.8,-38.4 c -19.3,-63.3 -39.7,-127.3 -60.6,-190.2 z M 4785.72,9935.7 c -21.03,62.5 -41.57,126.2 -61.04,189.2 l 125.65,38.8 c 19.15,-62 39.34,-124.6 60.03,-186.1 z m 15128.68,-350.9 -122.6,47.7 c 23.7,60.8 46.9,122.6 68.9,183.7 l 123.7,-44.6 c -22.4,-62.2 -46,-125 -70,-186.8 z M 4921.82,9562 c -24.15,61.5 -47.84,124.1 -70.38,186 l 123.56,45 c 22.17,-60.9 45.46,-122.4 69.22,-182.9 z m 14838.78,-345.1 -120.1,53.8 c 26.7,59.5 52.9,120.1 77.9,179.9 l 121.4,-50.7 c -25.5,-60.9 -52.1,-122.4 -79.2,-183 z M 5075.77,9196.8 c -27.02,59.9 -53.69,121.1 -79.25,181.7 l 121.18,51.1 c 25.14,-59.7 51.36,-119.8 77.94,-178.7 z m 14512.83,-339.5 -117.1,59.7 c 29.3,57.7 58.5,116.8 86.7,175.7 l 118.6,-56.7 c -28.6,-59.9 -58.3,-120 -88.2,-178.7 z M 5247.71,8839.6 c -30,58.5 -59.66,118.3 -88.19,177.6 l 118.49,57 c 28.06,-58.3 57.25,-117.1 86.75,-174.7 z m 14151.49,-332.8 -114.1,65.4 c 32.4,56.6 64.5,114.2 95.3,171.2 l 115.7,-62.5 c -31.4,-58 -64,-116.6 -96.9,-174.1 z M 5437.19,8491.1 c -32.83,56.9 -65.44,115.2 -96.91,173.1 l 115.53,62.8 c 30.96,-57 63.03,-114.2 95.32,-170.3 z m 13755.51,-324.8 -110.8,71 c 35,54.5 69.9,110.5 103.7,166.2 l 112.4,-68.2 c -34.3,-56.6 -69.8,-113.5 -105.3,-169 z M 5643.74,8152.2 c -35.76,55.5 -71.21,112.1 -105.38,168.2 l 112.29,68.4 c 33.61,-55.2 68.49,-110.8 103.65,-165.4 z m 13325.86,-315.6 -107,76.3 c 37.7,53 75.3,107.1 111.6,160.8 l 109,-73.7 c -37,-54.6 -75.2,-109.6 -113.6,-163.4 z M 5866.82,7823.7 c -38.39,53.7 -76.61,108.5 -113.58,162.9 l 108.79,73.9 c 36.36,-53.6 73.95,-107.5 111.72,-160.2 z m 12863.88,-305.4 -103.2,81.5 c 40.4,51.1 80.6,103.3 119.5,155.1 l 105.1,-79 c -39.5,-52.6 -80.3,-105.6 -121.4,-157.6 z M 6105.88,7506.5 c -41,51.8 -81.88,104.6 -121.5,157.2 l 105.02,79.1 c 38.97,-51.7 79.18,-103.7 119.52,-154.6 z m 12370.62,-294.2 -99,86.5 c 42.7,49 85.4,99.1 126.9,149 l 101.1,-84.1 c -42.1,-50.7 -85.5,-101.6 -129,-151.4 z M 6360.32,7201.4 c -43.49,49.6 -86.93,100.4 -129.11,151 l 101.01,84.2 c 41.49,-49.7 84.23,-99.7 127,-148.6 z m 11847.38,-282.1 -94.7,91.2 c 45,46.8 90.1,94.7 134,142.5 l 96.9,-88.9 c -44.6,-48.6 -90.4,-97.3 -136.2,-144.8 z M 6629.54,6909 c -45.82,47.4 -91.72,96 -136.41,144.6 l 96.73,89 c 43.98,-47.7 89.13,-95.6 134.21,-142.2 z m 11295.36,-269.1 -90.1,95.7 c 47.4,44.6 94.7,90.3 140.8,135.8 l 92.4,-93.6 c -46.8,-46.2 -95,-92.6 -143.1,-137.9 z m -11012.03,-9.8 c -48.03,45 -96.27,91.3 -143.39,137.7 l 92.25,93.7 c 46.36,-45.6 93.82,-91.2 141.07,-135.5 z m 10715.93,-255.3 -85.3,100.1 c 49.3,42 98.8,85.2 147.2,128.6 l 87.7,-98 c -49.2,-44.1 -99.5,-88 -149.6,-130.7 z m -10419.14,-9.5 c -50.3,42.7 -100.78,86.6 -150.03,130.6 l 87.54,98.1 c 48.45,-43.2 98.11,-86.4 147.6,-128.4 z m 10110.44,-240.7 -80.2,104.2 c 51.5,39.7 103,80.4 153.3,121.2 l 82.8,-102.2 c -51.1,-41.4 -103.5,-82.8 -155.9,-123.2 z m -9800.88,-9.2 c -52.37,40.2 -104.97,81.6 -156.34,123 l 82.61,102.4 c 50.54,-40.8 102.28,-81.6 153.79,-121.1 z m 9480.48,-225.4 -75.1,108 c 53.3,37 106.8,75.2 159,113.5 l 77.7,-106.2 c -53.1,-38.9 -107.5,-77.7 -161.6,-115.3 z m -9158.89,-9.1 c -54.09,37.4 -108.68,76.2 -162.25,115.3 l 77.45,106.2 c 52.71,-38.4 106.42,-76.5 159.62,-113.4 z m 8827.39,-209.3 -69.7,111.5 c 55,34.3 110.3,69.8 164.4,105.5 l 72.4,-109.8 c -55.1,-36.3 -111.3,-72.4 -167.1,-107.2 z m -8494.5,-9.1 c -56.11,34.9 -112.57,70.9 -167.81,107.2 l 72.14,109.9 c 54.33,-35.6 109.87,-71.1 165.07,-105.4 z m 8152.8,-192.7 -64.1,114.9 c 56.6,31.5 113.5,64.2 169.3,97.1 l 66.9,-113.2 c -56.7,-33.5 -114.6,-66.7 -172.1,-98.8 z m -7809.38,-9 c -57.72,32 -115.91,65.2 -172.97,98.7 l 66.6,113.4 c 56.13,-32.9 113.38,-65.6 170.16,-97.1 z m 7458.28,-175.5 -58.3,117.9 c 58.1,28.7 116.6,58.5 173.8,88.6 l 61.2,-116.4 c -58.2,-30.6 -117.6,-60.9 -176.7,-90.1 z m -7105.13,-9.1 c -59.47,29.2 -119.27,59.6 -177.75,90.1 l 60.93,116.6 c 57.5,-30.1 116.32,-59.9 174.81,-88.6 z m 6745.53,-157.8 -52.4,120.6 c 59.3,25.8 119.1,52.7 177.9,79.9 l 55.3,-119.3 c -59.7,-27.7 -120.5,-55 -180.8,-81.2 z m -6383.48,-9 c -60.85,26.2 -122.11,53.5 -182.08,81.2 l 55.04,119.4 c 58.98,-27.2 119.24,-54 179.1,-79.8 z m 6015.48,-140 -46.3,123 c 60.8,22.9 122.1,46.9 182.2,71.2 l 49.4,-121.9 c -61.2,-24.7 -123.5,-49.1 -185.3,-72.3 z m -5645.38,-8.6 c -61.9,23 -124.48,47.3 -186,72 l 49.01,122 c 60.51,-24.3 122.07,-48.1 182.94,-70.8 z m 5269.88,-122.2 -40.1,125.2 c 61.7,19.8 124.1,40.7 185.4,62 l 43.3,-124.2 c -62.4,-21.7 -125.8,-42.9 -188.6,-63 z m -4892.62,-7.9 c -63.23,20 -126.98,41.1 -189.48,62.7 l 42.88,124.3 c 61.46,-21.2 124.15,-41.9 186.32,-61.6 z m 4511.02,-104.1 -33.8,127.1 c 62.8,16.8 126.2,34.5 188.3,52.7 l 37,-126.2 c -63.1,-18.5 -127.6,-36.5 -191.5,-53.6 z m -4129.1,-6.6 c -64,16.9 -128.5,34.7 -191.6,53 l 36.6,126.3 c 62.1,-18 125.5,-35.5 188.5,-52.1 z m 3742.4,-86.1 -27.5,128.6 c 63.3,13.5 127.4,28 190.8,43.2 l 30.6,-127.8 c -64.3,-15.5 -129.6,-30.3 -193.9,-44 z m -3355.4,-5.4 c -64.7,13.6 -130,28.2 -194,43.3 l 30.2,128 c 63,-14.9 127.2,-29.2 190.9,-42.6 z m 2964.6,-68.1 -21,129.8 c 63.9,10.4 128.7,21.7 192.6,33.7 l 24.3,-129.2 c -64.9,-12.2 -130.8,-23.8 -195.9,-34.3 z m -2573.5,-4.1 c -65.3,10.4 -131.3,21.7 -196,33.7 l 23.9,129.3 c 63.6,-11.8 128.5,-22.9 192.7,-33.2 z m 2179.6,-49.9 -14.7,130.7 c 64.7,7.2 130,15.3 194.1,24.1 l 17.9,-130.3 c -65.2,-8.9 -131.6,-17.2 -197.3,-24.5 z m -1785.5,-2.9 c -65.5,7.2 -131.9,15.2 -197.4,24 l 17.4,130.3 c 64.5,-8.6 129.8,-16.5 194.2,-23.5 z m 1389.4,-31.7 -8.2,131.3 c 64.5,4 130.2,8.9 195,14.6 l 11.5,-131 c -66,-5.8 -132.7,-10.8 -198.3,-14.9 z m -993.2,-1.5 c -65.9,3.9 -132.6,8.6 -198.3,14.2 l 11,131 c 64.6,-5.4 130.2,-10.1 195.1,-14 z m 596.2,-13.6 -1.8,131.5 c 64.8,0.9 130.5,2.6 195.2,5.1 l 5,-131.4 c -65.8,-2.5 -132.5,-4.3 -198.4,-5.2 z m -198.9,-0.3 c -65.8,0.7 -132.7,2.2 -198.7,4.5 l 4.5,131.4 c 65,-2.2 130.8,-3.7 195.6,-4.4 l -1.4,-131.5"
         style="fill:#2e77e6;fill-opacity:1;fill-rule:nonzero;stroke:none"
         id="path14" />
      <path
         d="m 7581.35,17492.5 -159.35,116.3 31.34,43 159.36,-116.3 z m 318.7,-232.5 -159.35,116.3 31.35,42.9 159.35,-116.2 z m 318.7,-232.5 -159.35,116.2 31.35,43 159.35,-116.3 z m 318.71,-232.5 -159.35,116.2 31.34,43 159.35,-116.3 z m 318.7,-232.6 -159.35,116.3 31.34,43 159.35,-116.3 z m 318.7,-232.5 -159.35,116.3 31.35,42.9 159.35,-116.2 z m 318.7,-232.5 -159.35,116.3 31.35,42.9 159.35,-116.2 z m 318.71,-232.5 -159.36,116.2 31.35,43 159.35,-116.3 z m 318.73,-232.5 -159.38,116.2 31.38,43 159.3,-116.3 z m 318.7,-232.6 -159.4,116.3 31.4,43 159.3,-116.3 z m 318.7,-232.5 -159.4,116.3 31.4,42.9 159.3,-116.2 z m 318.7,-232.5 -159.4,116.3 31.4,42.9 159.3,-116.2 z m 318.7,-232.5 -159.4,116.2 31.4,43 159.3,-116.3 z m 318.7,-232.6 -159.4,116.3 31.4,43 159.3,-116.3 z m 318.7,-232.5 -159.4,116.3 31.4,43 159.3,-116.3 z m 318.7,-232.5 -159.4,116.3 31.4,42.9 159.3,-116.2 -31.3,-43"
         style="fill:#5896fa;fill-opacity:1;fill-rule:nonzero;stroke:none"
         id="path16" />
      <path
         d="m 11931,13492.7 -21.9,48.5 179.7,81.3 21.9,-48.4 z m -359.4,-162.6 -22,48.5 179.8,81.3 21.9,-48.5 z m -359.5,-162.6 -21.9,48.4 179.7,81.4 21.9,-48.5 z m -359.4,-162.7 -21.9,48.5 179.7,81.3 21.9,-48.4 z m -359.4,-162.6 -21.9,48.5 179.7,81.3 21.9,-48.5 z m -359.4,-162.6 -22,48.4 179.7,81.4 22,-48.5 z m -359.48,-162.7 -21.92,48.5 179.71,81.3 21.93,-48.4 z m -359.42,-162.6 -21.93,48.5 179.71,81.3 21.93,-48.5 z m -359.43,-162.6 -21.93,48.4 179.71,81.4 21.93,-48.5 z m -359.43,-162.6 -21.93,48.4 179.72,81.3 21.92,-48.4 z m -359.43,-162.7 -21.92,48.5 179.71,81.3 21.93,-48.5 z m -359.43,-162.6 -21.92,48.5 179.71,81.3 21.93,-48.5 z m -359.42,-162.6 -21.93,48.4 179.71,81.3 21.93,-48.4 z m -359.43,-162.7 -21.93,48.5 179.72,81.3 21.92,-48.4 z m -359.43,-162.6 -21.92,48.5 179.7,81.3 21.93,-48.5 z m -359.43,-162.6 -21.92,48.4 179.71,81.3 21.93,-48.4 z m -359.43,-162.7 -21.92,48.5 179.71,81.3 21.93,-48.4 z m -359.42,-162.6 -21.93,48.5 179.72,81.3 21.92,-48.5 z m -359.43,-162.6 -21.92,48.4 179.7,81.4 21.93,-48.5 z m -359.42,-162.6 -21.93,48.4 179.71,81.3 21.92,-48.4 -179.7,-81.3"
         style="fill:#5896fa;fill-opacity:1;fill-rule:nonzero;stroke:none"
         id="path18" />
      <path
         d="m 13766.4,19691.7 -36.6,38.6 143.2,135.7 36.6,-38.6 z m -286.4,-271.4 -36.5,38.6 143.1,135.7 36.6,-38.6 z m -286.3,-271.3 -36.6,38.6 143.2,135.7 36.6,-38.7 z m -286.4,-271.4 -36.6,38.6 143.2,135.7 36.6,-38.6 z m -286.3,-271.3 -36.6,38.6 143.2,135.6 36.5,-38.6 z m -286.4,-271.4 -36.6,38.6 143.2,135.7 36.6,-38.6 z m -286.4,-271.4 -36.5,38.6 143.1,135.7 36.6,-38.6 z m -286.3,-271.3 -36.6,38.6 143.2,135.7 36.6,-38.6 z m -286.4,-271.4 -36.6,38.6 143.2,135.7 36.6,-38.6 z m -286.3,-271.4 -36.6,38.7 143.2,135.6 36.5,-38.6 z m -286.4,-271.3 -36.6,38.6 143.2,135.7 36.6,-38.6 z m -286.3,-271.4 -36.6,38.6 143.1,135.7 36.6,-38.6 z m -286.4,-271.3 -36.6,38.6 143.2,135.7 36.6,-38.6 z m -286.4,-271.4 -36.6,38.6 143.2,135.7 36.6,-38.6 z m -286.33,-271.3 -36.58,38.6 143.17,135.6 36.59,-38.6 z m -286.35,-271.4 -36.6,38.6 143.19,135.7 36.58,-38.6 z m -286.37,-271.4 -36.59,38.7 143.19,135.6 36.58,-38.6 z m -286.35,-271.3 -36.6,38.6 143.18,135.7 36.59,-38.6 z m -286.37,-271.4 -36.59,38.6 143.19,135.7 36.59,-38.6 z m -286.35,-271.3 -36.6,38.6 143.18,135.7 36.59,-38.7 z m -286.37,-271.4 -36.58,38.6 143.18,135.7 36.59,-38.6 z m -286.36,-271.4 -36.58,38.7 143.17,135.6 36.6,-38.6 z m -286.35,-271.3 -36.59,38.6 143.18,135.7 36.58,-38.6 z m -286.36,-271.4 -36.6,38.6 143.19,135.7 36.58,-38.6 z m -286.36,-271.3 -36.59,38.6 143.18,135.7 36.59,-38.7 z m -286.37,-271.4 -36.58,38.6 143.18,135.7 36.59,-38.6 z m -286.35,-271.4 -36.59,38.7 143.18,135.6 36.59,-38.6 z m -286.36,-271.3 -36.58,38.6 143.17,135.7 36.59,-38.6 z m -286.36,-271.4 -36.59,38.6 143.18,135.7 36.59,-38.6 z m -286.36,-271.3 -36.59,38.6 143.18,135.7 36.59,-38.7 z m -207.39,-196.5 -36.59,38.6 64.21,60.8 36.58,-38.6 -64.2,-60.8"
         style="fill:#5896fa;fill-opacity:1;fill-rule:nonzero;stroke:none"
         id="path20" />
      <path
         d="m 15286.8,18632.3 -73,183.2 49.4,19.7 73,-183.2 z m 146.1,-366.5 -73.1,183.3 49.5,19.6 73,-183.2 z m 146,-366.5 -73,183.3 49.4,19.7 73,-183.3 z m 146,-366.5 -73,183.3 49.4,19.7 73,-183.3 z m 146.1,-366.4 -73.1,183.2 49.5,19.7 73,-183.3 z m 146,-366.5 -73,183.2 49.4,19.7 73,-183.2 z m 146,-366.5 -73,183.2 49.4,19.7 73.1,-183.2 z m 146.1,-366.5 -73,183.2 49.4,19.7 73,-183.2 z m 146,-366.5 -73,183.3 49.4,19.6 73,-183.2 z m 146,-366.5 -73,183.3 49.4,19.7 73.1,-183.3 z m 146.1,-366.5 -73,183.3 49.4,19.7 73,-183.3 z m 146,-366.4 -73,183.2 49.4,19.7 73,-183.3 z m 146,-366.5 -73,183.2 49.4,19.7 73.1,-183.2 z m 146.1,-366.5 -73,183.2 49.4,19.7 73,-183.2 z m 146,-366.5 -73,183.3 49.4,19.6 73,-183.2 z m 146.1,-366.5 -73.1,183.3 49.5,19.7 73,-183.3 z m 146,-366.5 -73,183.3 49.4,19.7 73,-183.3 z m 146,-366.4 -73,183.2 49.4,19.7 73,-183.3 z m 146.1,-366.5 -73.1,183.2 49.5,19.7 73,-183.2 z m 146,-366.5 -73,183.2 49.4,19.7 73,-183.2 z m 146,-366.5 -73,183.2 49.4,19.7 73,-183.2 z m 146.1,-366.5 -73.1,183.3 49.5,19.6 73,-183.2 z m 146,-366.5 -73,183.3 49.4,19.7 73,-183.3 z m 125.7,-315.4 -52.7,132.2 49.4,19.7 52.7,-132.3 -49.4,-19.6"
         style="fill:#5896fa;fill-opacity:1;fill-rule:nonzero;stroke:none"
         id="path22" />
      <path
         d="m 12872,13788.5 -168,103.4 27.8,45.3 168,-103.4 z m 335.9,-206.8 -167.9,103.4 27.8,45.3 168,-103.3 z m 336,-206.7 -168,103.4 27.9,45.3 168,-103.4 z m 336,-206.8 -168,103.4 27.9,45.3 168,-103.4 z m 336,-206.7 -168,103.3 27.9,45.3 168,-103.3 z m 336,-206.8 -168,103.4 27.9,45.3 168,-103.4 z m 336,-206.8 -168,103.4 27.9,45.3 168,-103.4 z m 336,-206.7 -168,103.4 27.9,45.3 167.9,-103.4 z m 336,-206.8 -168,103.4 27.8,45.3 168,-103.4 z m 335.9,-206.7 -167.9,103.3 27.8,45.3 168,-103.3 z m 336,-206.8 -168,103.4 27.9,45.3 168,-103.4 z m 336,-206.8 -168,103.4 27.9,45.3 168,-103.4 z m 336,-206.7 -168,103.4 27.9,45.3 168,-103.4 z m 336,-206.8 -168,103.4 27.9,45.3 168,-103.4 z m 336,-206.7 -168,103.3 27.9,45.3 167.9,-103.3 z m 336,-206.8 -168,103.4 27.8,45.3 168,-103.4 z m 335.9,-206.8 -167.9,103.4 27.8,45.3 168,-103.4 z m 336,-206.7 -168,103.4 27.9,45.2 168,-103.3 -27.9,-45.3"
         style="fill:#5896fa;fill-opacity:1;fill-rule:nonzero;stroke:none"
         id="path24" />
      <path
         d="m 17757,16175.8 -22,48.4 179.5,81.7 22.1,-48.5 z m -359.2,-163.2 -22,48.4 179.6,81.6 22,-48.4 z m -359.1,-163.3 -22,48.4 179.5,81.7 22.1,-48.5 z m -359.2,-163.2 -22,48.4 179.6,81.6 22,-48.4 z m -359.1,-163.3 -22,48.5 179.5,81.6 22.1,-48.5 z m -359.2,-163.2 -22,48.4 179.6,81.6 22,-48.4 z m -359.1,-163.3 -22,48.5 179.6,81.6 22,-48.5 z m -359.2,-163.2 -22,48.4 179.6,81.6 22,-48.4 z m -359.1,-163.3 -22,48.4 179.6,81.7 22,-48.5 z m -359.2,-163.2 -22,48.4 179.6,81.6 22,-48.4 z m -359.1,-163.3 -22,48.5 179.6,81.6 22,-48.5 z m -359.1,-163.2 -22.1,48.4 179.6,81.6 22,-48.4 z m -359.2,-163.3 -22,48.5 179.6,81.6 22,-48.5 z m -359.1,-163.2 -22,48.4 179.5,81.6 22,-48.4 z m -359.2,-163.3 -22,48.5 179.6,81.6 22,-48.4 -179.6,-81.7"
         style="fill:#5896fa;fill-opacity:1;fill-rule:nonzero;stroke:none"
         id="path26" />
      <path
         d="m 2197.08,11786.6 v 0 c 0.03,6.6 0.04,9.5 0.05,10.1 -0.01,-1.2 -0.05,-10.1 -0.05,-10.1"
         style="fill:#d9ffff;fill-opacity:1;fill-rule:nonzero;stroke:none"
         id="path28" />
      <path
         d="m 2197.08,11786.6 v 0 c 0.03,6.6 0.04,9.5 0.05,10.1 -0.01,-1.2 -0.05,-10.1 -0.05,-10.1"
         style="fill:#d9ffff;fill-opacity:1;fill-rule:nonzero;stroke:none"
         id="path30" />
      <path
         d="m 6124.35,11769 c 0,0 0.04,9 0.04,10.2 0,-0.7 -0.01,-3.6 -0.04,-10.2"
         style="fill:#d9ffff;fill-opacity:1;fill-rule:nonzero;stroke:none"
         id="path32" />
      <path
         d="m 6124.35,11769 c 0,0 0.04,9 0.04,10.2 0,-0.7 -0.01,-3.6 -0.04,-10.2"
         style="fill:#d9ffff;fill-opacity:1;fill-rule:nonzero;stroke:none"
         id="path34" />
      <path
         d="m 4168.76,12847.6 c -457.65,-490.2 -1187.92,-892 -1969.37,-1063.2 -0.22,-52.1 -1.52,-341.3 -7.48,-1674.1 -7.95,-1777.9 1684.08,-2646.7 1946.77,-2780 254.53,117.1 1967.91,984.6 1975.85,2762.5 5.96,1332.8 7.25,1621.9 7.49,1674.1 -779.89,178.2 -1500,586.4 -1953.26,1080.7"
         style="fill:#ffffff;fill-opacity:1;fill-rule:nonzero;stroke:none"
         id="path36" />
      <path
         d="M 4164.08,12526.3 C 3715.92,12115.2 3095.03,11792 2412.3,11615.9 l -6.74,-1506.4 c -3.08,-689.2 270.74,-1312.8 813.9,-1853.3 356.88,-355.2 732.11,-575.5 922.51,-674.6 8.18,4.2 17.17,8.9 26.01,13.5 v 4927.7 c -1.29,1.2 -2.64,2.3 -3.9,3.5"
         style="fill:#296acc;fill-opacity:1;fill-rule:nonzero;stroke:none"
         id="path38" />
      <path
         d="M 4167.98,12522.8 V 7595.1 c 197.99,103 557.86,315.9 902.49,652.8 547.94,535.7 827.34,1156.8 830.41,1846 l 6.74,1506.4 c -679.2,181.7 -1295.49,509 -1739.64,922.5"
         style="fill:#2e77e6;fill-opacity:1;fill-rule:nonzero;stroke:none"
         id="path40" />
      <path
         d="m 4198.65,9752.1 v -248 c 0,-33.1 -26.88,-60.5 -59.92,-60.5 -33.59,0 -60.47,27.4 -60.47,60.5 v 248.6 c -50.96,22.9 -86.8,74.4 -86.8,133.8 0,81.2 66.08,146.7 147.27,146.7 81.19,0 146.71,-65.5 146.71,-146.7 0,-59.9 -35.28,-111.4 -86.79,-134.4 z m -655.15,464.8 v -875.2 c 0,-97.5 1189.91,-97.5 1189.91,0 v 875.2 H 3543.5"
         style="fill:#ffffff;fill-opacity:1;fill-rule:nonzero;stroke:none"
         id="path42" />
      <path
         d="m 4598.87,10254.2 -149.51,5 104.4,121.3 c 142.55,146.2 139.57,381.1 -6.62,523.7 -146.21,142.5 -381.13,139.5 -523.68,-6.7 l -41.14,-42.2 -86.25,84.1 41.15,42.2 c 188.91,193.8 500.24,197.7 694.01,8.8 193.74,-188.9 197.7,-500.2 8.78,-694 l -41.14,-42.2"
         style="fill:#ffffff;fill-opacity:1;fill-rule:nonzero;stroke:none"
         id="path44" />
      <path
         d="m 15344.3,19176.6 h -2328.1 v 2906 h 2328.1 v -2906"
         style="fill:#296acc;fill-opacity:1;fill-rule:nonzero;stroke:none"
         id="path46" />
      <path
         d="m 15646.2,18876.6 h -2328.1 v 2905.9 h 2328.1 v -2905.9"
         style="fill:#ffffff;fill-opacity:1;fill-rule:nonzero;stroke:none"
         id="path48" />
      <path
         d="m 13356.9,18915.4 h 2250.5 v 2828.4 h -2250.5 z m 2328.1,-77.6 h -2405.7 v 2983.5 H 15685 v -2983.5"
         style="fill:#5896fa;fill-opacity:1;fill-rule:nonzero;stroke:none"
         id="path50" />
      <path
         d="m 15937,19971.9 h -2328.1 v 2906 H 15937 v -2906"
         style="fill:#ea5d00;fill-opacity:1;fill-rule:nonzero;stroke:none"
         id="path52" />
      <path
         d="m 15652.1,22308.2 h -1204.2 v 189 h 1204.2 v -189"
         style="fill:#ffffff;fill-opacity:1;fill-rule:nonzero;stroke:none"
         id="path54" />
      <path
         d="m 15652.1,21864.2 h -1560.4 v 189 h 1560.4 v -189"
         style="fill:#ffffff;fill-opacity:1;fill-rule:nonzero;stroke:none"
         id="path56" />
      <path
         d="m 15652.1,21420.1 h -1560.4 v 189 h 1560.4 v -189"
         style="fill:#ffffff;fill-opacity:1;fill-rule:nonzero;stroke:none"
         id="path58" />
      <path
         d="m 15652.1,20976.1 h -1560.4 v 189 h 1560.4 v -189"
         style="fill:#ffffff;fill-opacity:1;fill-rule:nonzero;stroke:none"
         id="path60" />
      <path
         d="m 15652.1,20532.1 h -1560.4 v 189 h 1560.4 v -189"
         style="fill:#ffffff;fill-opacity:1;fill-rule:nonzero;stroke:none"
         id="path62" />
      <path
         d="m 16308.6,18281.8 h -2328.1 v 2906 h 2328.1 v -2906"
         style="fill:#5896fa;fill-opacity:1;fill-rule:nonzero;stroke:none"
         id="path64" />
      <path
         d="m 15946.4,20521.7 h -1204.3 v 189 h 1204.3 v -189"
         style="fill:#005cea;fill-opacity:1;fill-rule:nonzero;stroke:none"
         id="path66" />
      <path
         d="M 15946.4,20077.7 H 14386 v 189 h 1560.4 v -189"
         style="fill:#005cea;fill-opacity:1;fill-rule:nonzero;stroke:none"
         id="path68" />
      <path
         d="M 15946.4,19633.6 H 14386 v 189.1 h 1560.4 v -189.1"
         style="fill:#005cea;fill-opacity:1;fill-rule:nonzero;stroke:none"
         id="path70" />
      <path
         d="M 15946.4,19189.6 H 14386 v 189 h 1560.4 v -189"
         style="fill:#005cea;fill-opacity:1;fill-rule:nonzero;stroke:none"
         id="path72" />
      <path
         d="M 15946.4,18745.6 H 14386 v 189 h 1560.4 v -189"
         style="fill:#005cea;fill-opacity:1;fill-rule:nonzero;stroke:none"
         id="path74" />
      <path
         d="m 7577.45,18541.5 c 0,-505.2 -409.55,-914.8 -914.77,-914.8 -505.21,0 -914.76,409.6 -914.76,914.8 0,505.2 409.55,914.8 914.76,914.8 505.22,0 914.77,-409.6 914.77,-914.8"
         style="fill:#ffffff;fill-opacity:1;fill-rule:nonzero;stroke:none"
         id="path76" />
      <path
         d="m 6190.67,17758.2 c -433.03,261.1 -572.16,822.9 -311.03,1256 260.74,432.3 822.55,571.5 1255.58,310.3 432.37,-260.7 571.49,-822.5 310.76,-1254.9 -261.14,-433 -822.94,-572.1 -1255.31,-311.4 z m 1915.28,-86.6 c 118.62,196.7 192.78,409.3 224.18,623.8 l 68.14,-10 134.56,-19.7 1.75,-0.2 c 36.29,245.5 23.94,493.7 -35.37,730.9 l -200.17,-49.6 c -53.7,214.6 -148.31,419 -283.18,599.2 l 165.93,123.4 c -141.96,192.7 -324.17,361.1 -541.7,492.3 l -106.88,-177.2 c -197.39,119 -409.26,192.8 -623.78,224.2 l 29.9,204.4 c -245.45,36.3 -494.08,23.3 -730.85,-35.3 l 49.58,-200.2 c -214.6,-53.7 -419.04,-148.3 -599.25,-283.2 l -123.32,165.9 c -192.72,-141.9 -361.2,-324.1 -492.38,-541.7 l 177.25,-106.9 c -119.03,-197.3 -192.79,-409.2 -224.19,-623.7 l -144.62,21.3 -59.14,8.2 -0.68,0.4 c -36.31,-245.5 -23.29,-494.1 35.35,-730.9 l 200.19,49.6 c 53.7,-214.6 148.97,-419.4 283.83,-599.6 l -165.93,-123.4 c 141.97,-192.7 323.52,-360.8 541.05,-491.9 l 106.88,177.2 c 197.38,-119 409.93,-193.2 624.45,-224.6 l -23.49,-158.9 -6.42,-45.5 c 245.45,-36.3 493.4,-22.9 730.17,35.7 l -49.55,200.2 c 214.57,53.7 419.43,149 600.29,283.4 l 123.33,-165.9 c 192.06,142.4 360.13,323.9 491.3,541.5 l -177.23,106.8"
         style="fill:#006b73;fill-opacity:1;fill-rule:nonzero;stroke:none"
         id="path78" />
      <path
         d="m 4208.48,16901.7 c -222.04,-146.9 -520.65,-86.1 -667.58,135.9 -146.69,221.7 -85.9,520.3 136.14,667.3 221.69,146.7 520.29,85.9 666.98,-135.8 146.93,-222.1 86.15,-520.7 -135.54,-667.4 z m 473.94,891.3 c -66.74,100.9 -151.07,184.2 -245.99,247.6 l 20.14,30.1 39.82,59.5 0.47,0.8 c -108.53,72.8 -229.37,123 -355.56,148.4 l -21.65,-106.4 c -114.18,22.9 -232.79,24.1 -348.96,0.7 l -21.15,106.8 c -123.73,-24 -245.02,-72.6 -356.56,-146.4 l 60.14,-90.8 c -101.22,-67 -184.16,-151.1 -247.56,-246 l -90.47,60.4 c -72.74,-108.5 -122.72,-229.7 -148.34,-355.6 l 106.4,-21.6 c -22.95,-114.2 -24.16,-232.8 -0.74,-349 l -106.78,-21.1 c 23.97,-123.8 72.55,-245.1 146.35,-356.6 l 90.89,60.1 c 66.97,-101.2 151.05,-184.1 245.98,-247.5 l -42.81,-64 -17.26,-26.2 -0.35,-0.3 c 108.51,-72.7 229.7,-122.7 355.54,-148.3 l 21.66,106.4 c 114.19,-23 233.13,-23.9 349.3,-0.5 l 21.15,-106.8 c 123.73,24 244.69,72.3 356.22,146.1 l -60.14,90.9 c 101.21,67 184.51,151.3 247.91,246.2 l 70.24,-47.1 20.22,-13.3 c 72.74,108.5 122.38,229.5 148,355.3 l -106.4,21.7 c 22.94,114.1 23.93,233.1 0.86,349.5 l 106.77,21.1 c -24.3,123.5 -72.66,244.5 -146.46,356 l -90.88,-60.1"
         style="fill:#ea7b00;fill-opacity:1;fill-rule:nonzero;stroke:none"
         id="path80" />
      <path
         d="m 20710,15847.2 h -2460.8 c -51.8,0 -93.8,42 -93.8,93.9 v 1396.2 c 0,51.8 42,93.8 93.8,93.8 H 20710 c 51.8,0 93.8,-42 93.8,-93.8 v -1396.2 c 0,-51.9 -42,-93.9 -93.8,-93.9"
         style="fill:#006b73;fill-opacity:1;fill-rule:nonzero;stroke:none"
         id="path82" />
      <path
         d="m 20803.8,16858.7 h -2648.4 v 273.3 h 2648.4 v -273.3"
         style="fill:#d1f5ff;fill-opacity:1;fill-rule:nonzero;stroke:none"
         id="path84" />
      <path
         d="m 18762,16151.1 h -389.4 c -24.7,0 -44.8,-20 -44.8,-44.8 0,-24.7 20.1,-44.8 44.8,-44.8 h 389.4 c 24.8,0 44.8,20.1 44.8,44.8 0,24.8 -20,44.8 -44.8,44.8"
         style="fill:#d1f5ff;fill-opacity:1;fill-rule:nonzero;stroke:none"
         id="path86" />
      <path
         d="m 19360.8,16151.1 h -389.4 c -24.7,0 -44.8,-20 -44.8,-44.8 0,-24.7 20.1,-44.8 44.8,-44.8 h 389.4 c 24.8,0 44.9,20.1 44.9,44.8 0,24.8 -20.1,44.8 -44.9,44.8"
         style="fill:#d1f5ff;fill-opacity:1;fill-rule:nonzero;stroke:none"
         id="path88" />
      <path
         d="m 19959.7,16151.1 h -389.4 c -24.8,0 -44.8,-20 -44.8,-44.8 0,-24.7 20,-44.8 44.8,-44.8 h 389.4 c 24.7,0 44.8,20.1 44.8,44.8 0,24.8 -20.1,44.8 -44.8,44.8"
         style="fill:#d1f5ff;fill-opacity:1;fill-rule:nonzero;stroke:none"
         id="path90" />
      <path
         d="m 20558.5,16151.1 h -389.4 c -24.7,0 -44.8,-20 -44.8,-44.8 0,-24.7 20.1,-44.8 44.8,-44.8 h 389.4 c 24.8,0 44.8,20.1 44.8,44.8 0,24.8 -20,44.8 -44.8,44.8"
         style="fill:#d1f5ff;fill-opacity:1;fill-rule:nonzero;stroke:none"
         id="path92" />
      <path
         d="m 18354.7,17350.8 v 0 c -27.4,0 -49.5,-22.2 -49.5,-49.5 v -17.4 c 0,-27.3 22.1,-49.5 49.5,-49.5 27.3,0 49.4,22.2 49.4,49.5 v 17.4 c 0,27.3 -22.1,49.5 -49.4,49.5"
         style="fill:#d1f5ff;fill-opacity:1;fill-rule:nonzero;stroke:none"
         id="path94" />
      <path
         d="m 18461.2,17292.6 v 0 c 0,-32.1 26.1,-58.2 58.2,-58.2 h 206.1 c 32.1,0 58.2,26.1 58.2,58.2 0,32.1 -26.1,58.2 -58.2,58.2 h -206.1 c -32.1,0 -58.2,-26.1 -58.2,-58.2"
         style="fill:#d1f5ff;fill-opacity:1;fill-rule:nonzero;stroke:none"
         id="path96" />
      <path
         d="m 18434.2,16711.7 h 266.2 c 42.7,0 77.3,-34.6 77.3,-77.3 v -229.5 c 0,-42.7 -34.6,-77.3 -77.3,-77.3 h -266.2 c -42.7,0 -77.3,34.6 -77.3,77.3 v 229.5 c 0,42.7 34.6,77.3 77.3,77.3"
         style="fill:#ffd145;fill-opacity:1;fill-rule:nonzero;stroke:none"
         id="path98" />
      <path
         d="m 19943.9,11148.6 v 181 c 0,82.1 -66.5,148.7 -148.7,148.7 h -1583.6 c -82.1,0 -148.7,-66.6 -148.7,-148.7 V 8131.4 h 4096.2 v 3017.2 h -2215.2"
         style="fill:#1251b3;fill-opacity:1;fill-rule:nonzero;stroke:none"
         id="path100" />
      <path
         d="m 22329.5,11038.7 h -4016.8 l -249.8,-2907.3 h 4076.3 l 190.3,2907.3"
         style="fill:#ffffff;fill-opacity:1;fill-rule:nonzero;stroke:none"
         id="path102" />
      <path
         d="m 22159.1,8131.4 h -4096.2 l 434.6,2871.2 c 12.8,83.9 84.9,146 169.9,146 h 3748.8 c 105.1,0 185.5,-93.5 169.8,-197.5 l -426.9,-2819.7"
         style="fill:#3383ff;fill-opacity:1;fill-rule:nonzero;stroke:none"
         id="path104" />
      <path
         d="m 21020.7,9570.1 c 0,-382.5 -310.1,-692.6 -692.6,-692.6 -382.6,0 -692.7,310.1 -692.7,692.6 0,382.5 310.1,692.6 692.7,692.6 382.5,0 692.6,-310.1 692.6,-692.6"
         style="fill:#ffffff;fill-opacity:1;fill-rule:nonzero;stroke:none"
         id="path106" />
      <path
         d="m 20329.1,9598 c 67.6,0 130,32.9 169.9,83.2 29.5,36.4 46.8,83.2 46.8,135.2 0,119.7 -97.1,218.5 -216.7,218.5 -121.4,0 -218.5,-98.8 -218.5,-218.5 0,-52 17.3,-98.8 46.8,-135.2 39.9,-50.3 102.3,-83.2 171.7,-83.2"
         style="fill:#005cea;fill-opacity:1;fill-rule:nonzero;stroke:none"
         id="path108" />
      <path
         d="m 20713,9208.7 c 0,-137.9 -770,-137.9 -770,0 l 0.3,160.6 c 30.4,219.7 707.1,228.9 769.8,0 l -0.1,-160.6"
         style="fill:#005cea;fill-opacity:1;fill-rule:nonzero;stroke:none"
         id="path110" />
      <path
         d="m 23445.1,10930.1 c 0,-605.4 -490.8,-1096.1 -1096.1,-1096.1 -605.4,0 -1096.1,490.7 -1096.1,1096.1 0,605.3 490.7,1096.1 1096.1,1096.1 605.3,0 1096.1,-490.8 1096.1,-1096.1"
         style="fill:#ffd145;fill-opacity:1;fill-rule:nonzero;stroke:none"
         id="path112" />
      <path
         d="m 22349,11986.1 c -582.5,0 -1056,-473.7 -1056,-1056 0,-582.2 473.5,-1056 1056,-1056 582.4,0 1055.9,473.8 1055.9,1056 0,582.3 -473.5,1056 -1055.9,1056 z m 0,-2192.2 c -626.6,0 -1136.4,509.7 -1136.4,1136.2 0,626.4 509.8,1136.1 1136.4,1136.1 626.5,0 1136.3,-509.7 1136.3,-1136.1 0,-626.5 -509.8,-1136.2 -1136.3,-1136.2"
         style="fill:#ffffff;fill-opacity:1;fill-rule:nonzero;stroke:none"
         id="path114" />
      <path
         d="m 22373.3,10657.4 v -160.8 c 0,-21.4 -17.4,-39.1 -38.8,-39.1 -21.8,0 -39.2,17.7 -39.2,39.1 v 161.1 c -33,14.9 -56.2,48.3 -56.2,86.7 0,52.6 42.8,95.1 95.4,95.1 52.6,0 95,-42.5 95,-95.1 0,-38.8 -22.8,-72.2 -56.2,-87 z m -424.5,301.1 v -567.1 c 0,-63.1 771,-63.1 771,0 v 567.1 h -771"
         style="fill:#000000;fill-opacity:1;fill-rule:nonzero;stroke:none"
         id="path116" />
      <path
         d="m 22632.6,10982.7 -96.9,3.2 67.7,78.6 c 92.3,94.7 90.4,246.9 -4.3,339.3 -94.7,92.3 -246.9,90.4 -339.3,-4.4 l -26.7,-27.3 -55.8,54.5 26.6,27.3 c 122.4,125.6 324.1,128.1 449.7,5.7 125.5,-122.3 128.1,-324.1 5.7,-449.6 l -26.7,-27.3"
         style="fill:#000000;fill-opacity:1;fill-rule:nonzero;stroke:none"
         id="path118" />
      <path
         d="m 8821.54,21426.6 c 0,94.5 76.6,171.1 171.13,171.1 94.52,0 171.12,-76.6 171.12,-171.1 0,-94.5 -76.6,-171.2 -171.12,-171.2 -94.53,0 -171.13,76.7 -171.13,171.2 z m 380.71,-137.2 c 23.57,0 56.12,-85 43.4,-97.8 -12.76,-12.7 -82.71,-12.1 -94.89,0 -12.13,12.2 27.98,97.8 51.49,97.8 z m 201.92,308.3 c 94.53,0 171.13,-76.6 171.13,-171.1 0,-94.5 -76.6,-171.2 -171.13,-171.2 -94.52,0 -171.12,76.7 -171.12,171.2 0,94.5 76.6,171.1 171.12,171.1 z m 128.36,-474.3 c 107.61,91.7 175.86,228.1 175.86,380.6 0,276 -223.73,499.8 -499.76,499.8 -276.07,0 -499.81,-223.8 -499.81,-499.8 0,-155.3 70.8,-294.1 181.93,-385.7 h 0.4 v -94.2 h 0.56 v -41.2 c 0,-29.2 21.52,-54.8 50.55,-57.7 33.36,-3.2 61.72,23.2 61.72,55.9 v 33.1 c 0,5.5 4.46,9.9 9.97,9.9 5.49,0 9.95,-4.4 9.95,-9.9 v -31.3 c 0,-29.2 21.52,-54.8 50.55,-57.7 33.36,-3.2 61.73,23.2 61.73,55.9 v 33.1 c 0,5.5 4.45,9.9 9.96,9.9 5.5,0 9.95,-4.4 9.95,-9.9 v -31.3 c 0,-29.2 21.53,-54.8 50.55,-57.7 33.36,-3.2 61.73,23.2 61.73,55.9 v 33.1 c 0,5.5 4.46,9.9 9.96,9.9 5.5,0 9.96,-4.4 9.96,-9.9 v -33.1 c 0,-30.9 25.26,-56.1 56.13,-56.1 30.88,0 56.14,25.2 56.14,56.1 v 33.1 c 0,5.5 4.46,9.9 9.96,9.9 5.5,0 9.96,-4.4 9.96,-9.9 v -33.1 c 0,-30.9 25.26,-56.1 56.14,-56.1 30.87,0 56.13,25.2 56.13,56.1 v 118.2 c 0,1.5 -0.11,2.9 -0.23,4.4 v 19.7 h 0.01"
         style="fill:#aae0ff;fill-opacity:1;fill-rule:nonzero;stroke:none"
         id="path120" />
      <path
         d="m 5654.49,14342.8 c 0,94.5 76.59,171.1 171.12,171.1 94.53,0 171.12,-76.6 171.12,-171.1 0,-94.5 -76.59,-171.1 -171.12,-171.1 -94.53,0 -171.12,76.6 -171.12,171.1 z m 380.71,-137.2 c 23.56,0 56.11,-85 43.4,-97.8 -12.77,-12.7 -82.72,-12.1 -94.9,0 -12.12,12.2 27.98,97.8 51.5,97.8 z m 201.92,308.3 c 94.53,0 171.12,-76.6 171.12,-171.1 0,-94.5 -76.59,-171.1 -171.12,-171.1 -94.53,0 -171.12,76.6 -171.12,171.1 0,94.5 76.59,171.1 171.12,171.1 z m 128.35,-474.3 c 107.62,91.7 175.86,228.2 175.86,380.6 0,276 -223.73,499.8 -499.75,499.8 -276.08,0 -499.81,-223.8 -499.81,-499.8 0,-155.3 70.8,-294 181.92,-385.7 h 0.4 v -94.2 h 0.57 v -41.2 c 0,-29.2 21.52,-54.8 50.55,-57.6 33.35,-3.3 61.72,23.1 61.72,55.8 v 33.1 c 0,5.5 4.46,9.9 9.96,9.9 5.5,0 9.96,-4.4 9.96,-9.9 v -31.3 c 0,-29.2 21.52,-54.8 50.55,-57.6 33.35,-3.3 61.72,23.1 61.72,55.8 v 33.1 c 0,5.5 4.46,9.9 9.96,9.9 5.5,0 9.96,-4.4 9.96,-9.9 v -31.3 c 0,-29.2 21.52,-54.8 50.55,-57.6 33.35,-3.3 61.72,23.1 61.72,55.8 v 33.1 c 0,5.5 4.46,9.9 9.96,9.9 5.51,0 9.97,-4.4 9.97,-9.9 v -33.1 c 0,-30.8 25.25,-56.1 56.13,-56.1 30.88,0 56.14,25.3 56.14,56.1 v 33.1 c 0,5.5 4.45,9.9 9.96,9.9 5.49,0 9.96,-4.4 9.96,-9.9 v -33.1 c 0,-30.8 25.26,-56.1 56.13,-56.1 30.87,0 56.14,25.3 56.14,56.1 v 118.2 c 0,1.5 -0.11,3 -0.23,4.4 v 19.7 0"
         style="fill:#aae0ff;fill-opacity:1;fill-rule:nonzero;stroke:none"
         id="path122" />
      <path
         d="m 18314.5,19721.8 c 0,74 60,133.9 133.9,133.9 74,0 134,-59.9 134,-133.9 0,-73.9 -60,-133.9 -134,-133.9 -73.9,0 -133.9,60 -133.9,133.9 z m 298,-107.3 c 18.4,0 43.9,-66.6 33.9,-76.6 -10,-9.9 -64.7,-9.5 -74.2,0 -9.5,9.5 21.9,76.6 40.3,76.6 z m 158,241.2 c 74,0 133.9,-59.9 133.9,-133.9 0,-73.9 -59.9,-133.9 -133.9,-133.9 -74,0 -133.9,60 -133.9,133.9 0,74 59.9,133.9 133.9,133.9 z m 100.4,-371.1 c 84.2,71.7 137.7,178.5 137.7,297.8 0,216 -175.1,391.1 -391.1,391.1 -216.1,0 -391.2,-175.1 -391.2,-391.1 0,-121.6 55.4,-230.1 142.4,-301.8 h 0.3 v -73.8 h 0.4 v -32.2 c 0,-22.9 16.9,-42.9 39.6,-45.1 26.1,-2.6 48.3,18.1 48.3,43.7 v 25.8 c 0,4.4 3.5,7.8 7.8,7.8 4.3,0 7.8,-3.4 7.8,-7.8 v -24.4 c 0,-22.9 16.8,-42.9 39.5,-45.1 26.1,-2.6 48.3,18.1 48.3,43.7 v 25.8 c 0,4.4 3.5,7.8 7.8,7.8 4.3,0 7.8,-3.4 7.8,-7.8 v -24.4 c 0,-22.9 16.9,-42.9 39.6,-45.1 26.1,-2.6 48.3,18.1 48.3,43.7 v 25.8 c 0,4.4 3.5,7.8 7.8,7.8 4.3,0 7.8,-3.4 7.8,-7.8 v -25.8 c 0,-24.2 19.8,-43.9 43.9,-43.9 24.2,0 43.9,19.7 43.9,43.9 v 25.8 c 0,4.4 3.5,7.8 7.8,7.8 4.3,0 7.8,-3.4 7.8,-7.8 v -25.8 c 0,-24.2 19.8,-43.9 44,-43.9 24.1,0 43.9,19.7 43.9,43.9 v 92.5 c 0,1.1 -0.1,2.3 -0.2,3.4 v 15.4 0.1"
         style="fill:#aae0ff;fill-opacity:1;fill-rule:nonzero;stroke:none"
         id="path124" />
      <path
         d="m 19570.7,6057.1 c 0,74 59.9,133.9 133.9,133.9 74,0 133.9,-59.9 133.9,-133.9 0,-73.9 -59.9,-133.9 -133.9,-133.9 -74,0 -133.9,60 -133.9,133.9 z m 297.9,-107.3 c 18.5,0 43.9,-66.6 34,-76.6 -10,-9.9 -64.7,-9.5 -74.3,0 -9.5,9.6 21.9,76.6 40.3,76.6 z m 158.1,241.2 c 73.9,0 133.9,-59.9 133.9,-133.9 0,-73.9 -60,-133.9 -133.9,-133.9 -74,0 -134,60 -134,133.9 0,74 60,133.9 134,133.9 z m 100.4,-371.1 c 84.2,71.7 137.6,178.5 137.6,297.8 0,216 -175.1,391.1 -391.1,391.1 -216,0 -391.1,-175.1 -391.1,-391.1 0,-121.5 55.4,-230.1 142.3,-301.8 h 0.4 v -73.7 h 0.4 v -32.3 c 0,-22.9 16.8,-42.9 39.6,-45.1 26.1,-2.6 48.3,18.1 48.3,43.7 v 25.9 c 0,4.3 3.5,7.8 7.8,7.8 4.3,0 7.8,-3.5 7.8,-7.8 v -24.5 c 0,-22.9 16.8,-42.9 39.5,-45.1 26.1,-2.6 48.3,18.1 48.3,43.7 v 25.9 c 0,4.3 3.5,7.8 7.8,7.8 4.3,0 7.8,-3.5 7.8,-7.8 v -24.5 c 0,-22.9 16.8,-42.9 39.6,-45.1 26.1,-2.6 48.3,18.1 48.3,43.7 v 25.9 c 0,4.3 3.5,7.8 7.8,7.8 4.3,0 7.8,-3.5 7.8,-7.8 v -25.9 c 0,-24.2 19.7,-43.9 43.9,-43.9 24.2,0 43.9,19.7 43.9,43.9 v 25.9 c 0,4.3 3.5,7.8 7.8,7.8 4.3,0 7.8,-3.5 7.8,-7.8 v -25.9 c 0,-24.2 19.8,-43.9 43.9,-43.9 24.2,0 44,19.7 44,43.9 v 92.5 c 0,1.1 -0.1,2.3 -0.2,3.5 v 15.4"
         style="fill:#aae0ff;fill-opacity:1;fill-rule:nonzero;stroke:none"
         id="path126" />
      <path
         d="m 12208.7,16307.3 -1750.3,-3031.5 c -90.7,-157.1 22.7,-353.5 204.1,-353.5 H 14163 c 181.4,0 294.8,196.4 204.1,353.5 l -1750.3,3031.5 c -90.7,157.1 -317.4,157.1 -408.1,0"
         style="fill:#ffd145;fill-opacity:1;fill-rule:nonzero;stroke:none"
         id="path128" />
      <path
         d="m 12425.2,16182.7 z m -24.6,-0.2 v -0.2 z m -1713.8,-3010.6 h 3452 l -1726.1,2989.4 z m 3476.2,-100 h -3500.5 c -31.7,0 -58.8,15.8 -74.4,43.4 -15.6,26.7 -15.8,57.9 0.1,85.5 l 1750.4,3031.5 c 30.5,54.5 117.7,54.5 148.7,-0.3 l 1750,-3031.2 c 15.7,-27.1 15.7,-58.5 0.1,-85.7 -15.5,-27.4 -42.6,-43.2 -74.4,-43.2"
         style="fill:#000000;fill-opacity:1;fill-rule:nonzero;stroke:none"
         id="path130" />
      <path
         d="m 12417.8,13996.8 v 0 c -100.5,0 -183.8,77.8 -190.7,178.1 l -58.6,855.1 c -10,144.5 104.5,267.1 249.3,267.1 144.8,0 259.3,-122.6 249.4,-267.1 l -58.7,-855.1 c -6.9,-100.3 -90.2,-178.1 -190.7,-178.1"
         style="fill:#000000;fill-opacity:1;fill-rule:nonzero;stroke:none"
         id="path132" />
      <path
         d="m 12606.4,13656.9 c 0,-104.2 -84.4,-188.6 -188.6,-188.6 -104.1,0 -188.6,84.4 -188.6,188.6 0,104.1 84.5,188.6 188.6,188.6 104.2,0 188.6,-84.5 188.6,-188.6"
         style="fill:#000000;fill-opacity:1;fill-rule:nonzero;stroke:none"
         id="path134" />
      <path
         d="m 20008.7,13743 c -0.9,0 -1.8,0 -2.7,0.1 l -304.1,30.2 c -6.2,0.6 -11.7,4 -15,9.3 l -186.3,297.1 c -5.9,9.3 -3.1,21.6 6.3,27.5 9.3,5.9 21.6,3 27.5,-6.3 l 181.2,-288.8 294.3,-29.2 c 11,-1.1 19,-10.9 17.9,-21.9 -1,-10 -9.3,-17.6 -19.1,-18"
         style="fill:#000000;fill-opacity:1;fill-rule:nonzero;stroke:none"
         id="path136" />
      <path
         d="m 20157.1,12868.5 c -7.1,-0.3 -14.1,3.3 -18,9.8 l -198.4,335.1 c -3.7,6.2 -3.7,14 0,20.3 l 155.1,263.3 c 5.6,9.5 17.8,12.6 27.3,7 9.5,-5.6 12.7,-17.8 7.1,-27.3 l -149.1,-253.1 192.4,-325 c 5.6,-9.4 2.5,-21.7 -7,-27.3 -3,-1.8 -6.2,-2.7 -9.4,-2.8"
         style="fill:#000000;fill-opacity:1;fill-rule:nonzero;stroke:none"
         id="path138" />
      <path
         d="m 19681.3,13102.9 c -2.3,-0.1 -4.6,0.2 -6.9,0.9 -10.5,3.4 -16.3,14.7 -12.9,25.2 l 89.1,275.9 c 1.5,4.8 4.7,8.8 9,11.2 l 252,144.7 c 9.6,5.5 21.8,2.2 27.3,-7.3 5.5,-9.6 2.2,-21.8 -7.4,-27.3 l -245.3,-140.9 -86.7,-268.6 c -2.6,-8.2 -10.1,-13.5 -18.2,-13.8"
         style="fill:#000000;fill-opacity:1;fill-rule:nonzero;stroke:none"
         id="path140" />
      <path
         d="m 19681.9,13572.4 c -3.9,-0.2 -7.8,0.8 -11.1,2.9 l -203.4,124.3 c -9.4,5.8 -12.3,18.1 -6.6,27.5 5.8,9.4 18.1,12.4 27.5,6.6 l 197,-120.5 301.4,47.6 c 11,1.8 21.1,-5.7 22.8,-16.6 1.8,-10.9 -5.7,-21.1 -16.6,-22.8 l -308.6,-48.8 -2.4,-0.2"
         style="fill:#000000;fill-opacity:1;fill-rule:nonzero;stroke:none"
         id="path142" />
      <path
         d="m 19943.2,13717.6 c -30.8,194.9 102.3,377.9 297.3,408.7 194.9,30.8 377.9,-102.3 408.7,-297.2 30.8,-195 -87.4,-472.3 -282.3,-503.1 -195,-30.8 -392.9,196.6 -423.7,391.6"
         style="fill:#000000;fill-opacity:1;fill-rule:nonzero;stroke:none"
         id="path144" />
      <path
         d="m 20486.9,13884 c 24,48.2 5.5,107.1 -42.4,132.6 -47.8,25.5 -107,8 -133.6,-38.9 l 176,-93.7"
         style="fill:#ffffff;fill-opacity:1;fill-rule:nonzero;stroke:none"
         id="path146" />
      <path
         d="m 20087.5,13812.1 c -39.5,36.7 -42.9,98.3 -7.1,139 35.8,40.8 97.4,45.2 138.8,10.7 l -131.7,-149.7"
         style="fill:#ffffff;fill-opacity:1;fill-rule:nonzero;stroke:none"
         id="path148" />
      <path
         d="m 20432.9,14076 c 0,0 -0.5,160.1 -130.7,197.6 44.7,-73.1 -0.1,-174.1 -0.1,-174.1 l 130.8,-23.5"
         style="fill:#000000;fill-opacity:1;fill-rule:nonzero;stroke:none"
         id="path150" />
      <path
         d="m 20081.7,14020.5 c 0,0 -48.9,152.5 63.4,228.3 -20,-83.3 53.8,-165.6 53.8,-165.6 l -117.2,-62.7"
         style="fill:#000000;fill-opacity:1;fill-rule:nonzero;stroke:none"
         id="path152" />
      <path
         d="m 20568.6,13831.5 c -7.9,-0.3 -15.7,4.2 -19,11.9 -4.5,10.1 0.1,21.9 10.3,26.3 l 271,118.6 83.3,330.5 c 2.7,10.7 13.6,17.2 24.3,14.5 10.6,-2.7 17.1,-13.5 14.4,-24.2 l -85.7,-340.1 c -1.5,-6 -5.7,-10.9 -11.4,-13.4 l -280,-122.5 c -2.3,-1 -4.8,-1.5 -7.2,-1.6"
         style="fill:#000000;fill-opacity:1;fill-rule:nonzero;stroke:none"
         id="path154" />
      <path
         d="m 20697.1,12953.8 c -1.7,-0.1 -3.5,0.1 -5.2,0.5 -10.8,2.4 -17.5,13.1 -15.1,23.8 l 82.9,368.5 -219.9,194.8 c -8.2,7.3 -9,19.9 -1.7,28.2 7.3,8.2 20,9 28.2,1.7 l 228.7,-202.7 c 5.5,-4.8 7.9,-12.2 6.3,-19.3 l -85.5,-379.9 c -2.1,-9.1 -9.9,-15.3 -18.7,-15.6"
         style="fill:#000000;fill-opacity:1;fill-rule:nonzero;stroke:none"
         id="path156" />
      <path
         d="m 21077.5,13323.4 c -6.5,-0.2 -12.9,2.7 -17,8.3 l -165.3,228.8 -276.8,58.4 c -10.8,2.3 -17.7,12.9 -15.4,23.7 2.3,10.8 12.9,17.7 23.7,15.4 l 284.3,-60 c 4.9,-1 9.2,-3.8 12.1,-7.8 l 169.8,-235.1 c 6.4,-9 4.4,-21.5 -4.5,-27.9 -3.3,-2.4 -7.1,-3.6 -10.9,-3.8"
         style="fill:#000000;fill-opacity:1;fill-rule:nonzero;stroke:none"
         id="path158" />
      <path
         d="m 20623.4,13721.1 c -9.9,-0.4 -18.8,6.7 -20.4,16.8 -1.7,10.9 5.7,21.2 16.6,22.9 l 301.3,47.6 150.4,175.4 c 7.1,8.3 19.7,9.3 28.1,2.1 8.4,-7.2 9.4,-19.8 2.2,-28.1 l -155.1,-181 c -3.1,-3.6 -7.4,-6 -12.1,-6.7 l -308.6,-48.8 -2.4,-0.2"
         style="fill:#000000;fill-opacity:1;fill-rule:nonzero;stroke:none"
         id="path160" />
      <path
         d="m 10984.2,17397 c -6,0 -11.8,2.8 -15.5,8 l -169.1,237.4 c -3.5,4.8 -4.5,10.9 -2.8,16.5 l 96.5,320.3 c 3,10.1 13.7,15.8 23.7,12.8 10.1,-3.1 15.8,-13.7 12.8,-23.8 l -93.8,-311.3 163.7,-229.8 c 6.1,-8.6 4.1,-20.5 -4.5,-26.6 -3.3,-2.4 -7.2,-3.5 -11,-3.5"
         style="fill:#000000;fill-opacity:1;fill-rule:nonzero;stroke:none"
         id="path162" />
      <path
         d="m 10449,16741.7 c -2,0 -4,0.3 -5.9,1 -10,3.3 -15.5,14 -12.2,24 l 116.2,352.8 c 2.2,6.6 7.8,11.5 14.6,12.8 l 286.5,53.7 c 10.3,2 20.3,-4.8 22.2,-15.2 1.9,-10.3 -4.9,-20.3 -15.2,-22.2 l -275.4,-51.7 -112.7,-342.1 c -2.6,-8 -10.1,-13.1 -18.1,-13.1"
         style="fill:#000000;fill-opacity:1;fill-rule:nonzero;stroke:none"
         id="path164" />
      <path
         d="m 10318.9,17230.6 c -7.4,0 -14.5,4.3 -17.6,11.5 -4.1,9.7 0.4,20.8 10,25 l 254.2,109.2 c 4.3,1.9 9.2,2 13.7,0.5 l 262.1,-90.3 c 9.9,-3.4 15.2,-14.2 11.8,-24.2 -3.5,-9.9 -14.3,-15.2 -24.3,-11.8 l -255.1,87.9 -247.3,-106.3 c -2.5,-1 -5,-1.5 -7.5,-1.5"
         style="fill:#000000;fill-opacity:1;fill-rule:nonzero;stroke:none"
         id="path166" />
      <path
         d="m 10885.2,17333.5 c -4.3,0 -8.7,1.5 -12.2,4.5 l -228.7,191.1 c -3.5,2.9 -5.8,6.9 -6.5,11.4 l -38.3,224.1 c -1.8,10.3 5.2,20.2 15.6,22 10.4,1.7 20.2,-5.2 22,-15.6 l 37,-217.2 223.3,-186.6 c 8.1,-6.8 9.2,-18.8 2.4,-26.8 -3.8,-4.5 -9.2,-6.9 -14.6,-6.9"
         style="fill:#000000;fill-opacity:1;fill-rule:nonzero;stroke:none"
         id="path168" />
      <path
         d="m 10910.9,17434 c 120.7,144.5 335.7,163.7 480.1,43 144.5,-120.8 163.7,-335.7 43,-480.2 -120.7,-144.4 -394.1,-233.5 -538.6,-112.8 -144.4,120.7 -105.2,405.6 15.5,550"
         style="fill:#000000;fill-opacity:1;fill-rule:nonzero;stroke:none"
         id="path170" />
      <path
         d="m 11371.6,17147.9 c 49.7,13 80.4,63.3 68.7,113.6 -11.8,50.4 -61.5,81.9 -111.8,71.6 l 43.1,-185.2"
         style="fill:#ffffff;fill-opacity:1;fill-rule:nonzero;stroke:none"
         id="path172" />
      <path
         d="m 11069.4,17389.8 c 1.5,51.3 43.7,92.4 95.4,92.2 51.7,-0.2 93.6,-41.6 94.7,-93 l -190.1,0.8"
         style="fill:#ffffff;fill-opacity:1;fill-rule:nonzero;stroke:none"
         id="path174" />
      <path
         d="m 11475.6,17307.2 c 0,0 114.8,100.8 60,217.8 -24.5,-77.9 -125.2,-109.1 -125.2,-109.1 l 65.2,-108.7"
         style="fill:#000000;fill-opacity:1;fill-rule:nonzero;stroke:none"
         id="path176" />
      <path
         d="m 11215.4,17524.6 c 0,0 78.9,130.9 203.8,97.7 -72.4,-37.9 -85.2,-142.5 -85.2,-142.5 l -118.6,44.8"
         style="fill:#000000;fill-opacity:1;fill-rule:nonzero;stroke:none"
         id="path178" />
      <path
         d="m 11662.6,16926 c -2.7,0 -5.5,0.6 -8.1,1.8 l -263.6,124.3 c -9.5,4.5 -13.6,15.8 -9.1,25.3 4.5,9.5 15.8,13.6 25.3,9.1 l 255.2,-120.3 289.8,147.6 c 9.4,4.7 20.8,1 25.6,-8.4 4.8,-9.3 1.1,-20.8 -8.3,-25.6 l -298.1,-151.8 c -2.7,-1.3 -5.7,-2 -8.7,-2"
         style="fill:#000000;fill-opacity:1;fill-rule:nonzero;stroke:none"
         id="path180" />
      <path
         d="m 10849.1,16407.3 c -6.8,0 -13.3,3.6 -16.8,10 -5,9.2 -1.5,20.8 7.7,25.8 l 316.7,171.6 2,280.2 c 0.1,10.5 8.7,19.3 19.2,18.9 10.5,0 19,-8.6 18.9,-19.2 l -2.1,-291.4 c 0,-7 -3.9,-13.3 -10,-16.6 l -326.5,-177 c -2.9,-1.5 -6,-2.3 -9.1,-2.3"
         style="fill:#000000;fill-opacity:1;fill-rule:nonzero;stroke:none"
         id="path182" />
      <path
         d="m 11353.3,16365.9 c -1.4,0 -2.9,0.2 -4.3,0.5 -10.3,2.4 -16.6,12.6 -14.3,22.9 l 60.7,262.3 -131.7,235.5 c -5.1,9.2 -1.9,20.8 7.3,25.9 9.2,5.1 20.8,1.9 25.9,-7.3 l 135.4,-241.9 c 2.3,-4.2 3,-9 1.9,-13.6 l -62.4,-269.5 c -2,-8.8 -9.8,-14.8 -18.5,-14.8"
         style="fill:#000000;fill-opacity:1;fill-rule:nonzero;stroke:none"
         id="path184" />
      <path
         d="m 11582.8,16750.5 c -4.5,0 -8.8,1.5 -12.2,4.4 l -228.7,191.1 c -8.1,6.8 -9.1,18.8 -2.4,26.9 6.7,8 18.8,9.1 26.8,2.4 l 223.3,-186.7 220.3,2.1 c 10.8,0 19.1,-8.3 19.2,-18.9 0.1,-10.5 -8.3,-19.1 -18.8,-19.2 l -227.3,-2.1 h -0.2"
         style="fill:#000000;fill-opacity:1;fill-rule:nonzero;stroke:none"
         id="path186" />
      <path
         d="m 7056.24,6951.8 c -7.5,0 -14.92,3.4 -19.8,9.8 -8.28,10.9 -6.14,26.5 4.79,34.8 l 302.56,229.4 c 6.1,4.6 14.03,6.1 21.43,4.2 l 420.8,-113.3 c 13.24,-3.5 21.08,-17.1 17.52,-30.4 -3.56,-13.2 -17.17,-21 -30.41,-17.5 l -409.05,110.1 -292.87,-222.1 c -4.49,-3.4 -9.75,-5 -14.97,-5"
         style="fill:#000000;fill-opacity:1;fill-rule:nonzero;stroke:none"
         id="path188" />
      <path
         d="m 6727.2,7114.7 c -11.41,0 -21.68,7.9 -24.22,19.5 l -77.98,356.6 -449.8,133.5 c -13.14,3.9 -20.63,17.7 -16.73,30.8 3.89,13.2 17.7,20.7 30.85,16.8 l 463.85,-137.7 c 8.67,-2.5 15.25,-9.6 17.19,-18.5 l 81.1,-370.9 c 2.93,-13.4 -5.55,-26.6 -18.94,-29.5 -1.78,-0.4 -3.56,-0.6 -5.32,-0.6"
         style="fill:#000000;fill-opacity:1;fill-rule:nonzero;stroke:none"
         id="path190" />
      <path
         d="m 6858.39,7140.2 c -2.44,0 -4.93,0.4 -7.38,1.2 -13.09,4 -20.39,18 -16.32,31.1 l 104.51,335.5 -147.95,318 c -5.79,12.4 -0.4,27.2 12.03,33 12.42,5.8 27.18,0.4 32.97,-12 l 152,-326.7 c 2.6,-5.6 3.02,-12 1.19,-17.9 l -107.36,-344.7 c -3.32,-10.6 -13.12,-17.5 -23.69,-17.5"
         style="fill:#000000;fill-opacity:1;fill-rule:nonzero;stroke:none"
         id="path192" />
      <path
         d="m 6969.75,7078.2 c -5.37,0 -10.78,1.8 -15.33,5.3 -10.77,8.5 -12.64,24.1 -4.16,34.9 l 240,305.1 c 3.65,4.7 8.83,7.8 14.61,9 l 290.29,58.5 c 13.44,2.7 26.51,-6 29.22,-19.5 2.7,-13.4 -5.99,-26.5 -19.43,-29.2 l -281.33,-56.6 -234.36,-298 c -4.89,-6.2 -12.17,-9.5 -19.51,-9.5"
         style="fill:#000000;fill-opacity:1;fill-rule:nonzero;stroke:none"
         id="path194" />
      <path
         d="m 7076.81,7072.7 c 192.75,-151.6 226.11,-430.8 74.5,-623.5 -151.6,-192.8 -430.76,-226.1 -623.52,-74.5 -192.75,151.6 -319.38,504.1 -167.78,696.8 151.61,192.8 524.04,152.8 716.8,1.2"
         style="fill:#000000;fill-opacity:1;fill-rule:nonzero;stroke:none"
         id="path196" />
      <path
         d="m 6722.11,6461.8 c 18.84,-64.3 85.45,-102.3 150.59,-85.1 65.13,17.3 104.28,83.2 88.92,148.4 l -239.51,-63.3"
         style="fill:#ffffff;fill-opacity:1;fill-rule:nonzero;stroke:none"
         id="path198" />
      <path
         d="m 7025.29,6864.6 c 66.96,0 122.11,-53.3 123.86,-120.6 1.75,-67.4 -50.55,-123.5 -117.42,-127 l -6.44,247.6"
         style="fill:#ffffff;fill-opacity:1;fill-rule:nonzero;stroke:none"
         id="path200" />
      <path
         d="m 6933.49,6332.5 c 0,0 135.7,-145.6 286,-69.6 -102.44,28.8 -146.94,158.7 -146.94,158.7 l -139.06,-89.1"
         style="fill:#000000;fill-opacity:1;fill-rule:nonzero;stroke:none"
         id="path202" />
      <path
         d="m 7206.54,6679.7 c 0,0 173.45,-97.6 135.09,-261.6 -52.14,92.8 -188.87,105.4 -188.87,105.4 l 53.78,156.2"
         style="fill:#000000;fill-opacity:1;fill-rule:nonzero;stroke:none"
         id="path204" />
      <path
         d="m 6678.37,5667.8 c -8.78,0 -17.28,4.7 -21.79,12.9 L 6447.4,6063 c -3.68,6.8 -4.05,14.8 -0.98,21.8 l 151.64,348.1 c 5.47,12.6 20.08,18.3 32.66,12.9 12.56,-5.5 18.31,-20.1 12.83,-32.7 l -146.77,-336.9 203.34,-371.6 c 6.57,-12.1 2.17,-27.1 -9.86,-33.7 -3.78,-2.1 -7.86,-3.1 -11.89,-3.1"
         style="fill:#000000;fill-opacity:1;fill-rule:nonzero;stroke:none"
         id="path206" />
      <path
         d="m 6005.39,6671 c -8.83,0 -17.01,4.7 -21.45,12.3 l -243.07,418.4 c -6.88,11.9 -2.86,27 8.99,33.9 11.85,6.9 27.05,2.9 33.92,-9 l 235.7,-405.7 364.94,8.3 h 0.58 c 13.44,0 24.49,-10.8 24.79,-24.3 0.31,-13.7 -10.54,-25 -24.24,-25.3 l -379.6,-8.6 h -0.56"
         style="fill:#000000;fill-opacity:1;fill-rule:nonzero;stroke:none"
         id="path208" />
      <path
         d="m 6081.3,6360.5 c -1.63,0 -3.26,0.2 -4.87,0.5 l -353.3,70.7 c -13.44,2.7 -22.15,15.8 -19.46,29.2 2.7,13.5 15.79,22.2 29.21,19.5 l 343.89,-68.9 301.52,180.7 c 11.76,7 27,3.2 34.03,-8.6 7.05,-11.7 3.23,-27 -8.53,-34 L 6094.05,6364 c -3.88,-2.3 -8.29,-3.5 -12.75,-3.5"
         style="fill:#000000;fill-opacity:1;fill-rule:nonzero;stroke:none"
         id="path210" />
      <path
         d="m 6249.13,5851.4 c -13.26,0 -24.25,10.5 -24.77,23.9 l -11.58,295.8 c -0.23,5.9 1.64,11.7 5.29,16.4 l 240.01,305.1 c 8.46,10.8 24.06,12.6 34.84,4.2 10.77,-8.5 12.64,-24.1 4.16,-34.9 l -234.36,-297.9 11.23,-286.8 c 0.53,-13.7 -10.14,-25.2 -23.83,-25.8 h -0.99"
         style="fill:#000000;fill-opacity:1;fill-rule:nonzero;stroke:none"
         id="path212" />
      <path
         d="m 18932,1275.3 -62.3,-108.1 c -3.3,-5.6 0.8,-12.6 7.2,-12.6 h 124.8 c 6.5,0 10.5,7 7.3,12.6 l -62.4,108.1 c -3.2,5.5 -11.3,5.5 -14.6,0"
         style="fill:#ffd145;fill-opacity:1;fill-rule:nonzero;stroke:none"
         id="path214" />
      <path
         d="m 18939.8,1270.8 z m -0.9,0 v 0 z m -61.1,-107.3 h 123 l -61.5,106.5 z m 123.9,-3.5 h -124.8 c -1.1,0 -2.1,0.5 -2.6,1.5 -0.6,1 -0.6,2.1 0,3 l 62.4,108.1 c 1.1,1.9 4.2,1.9 5.3,0 l 62.3,-108.1 c 0.6,-0.9 0.6,-2 0,-3 -0.5,-1 -1.5,-1.5 -2.6,-1.5"
         style="fill:#000000;fill-opacity:1;fill-rule:nonzero;stroke:none"
         id="path216" />
      <path
         d="m 18939.5,1192.9 v 0 c -3.6,0 -6.6,2.8 -6.8,6.4 l -2.1,30.4 c -0.3,5.2 3.7,9.5 8.9,9.5 5.2,0 9.2,-4.3 8.9,-9.5 l -2.1,-30.4 c -0.3,-3.6 -3.2,-6.4 -6.8,-6.4"
         style="fill:#000000;fill-opacity:1;fill-rule:nonzero;stroke:none"
         id="path218" />
      <path
         d="m 18946.2,1180.8 c 0,-3.7 -3,-6.7 -6.7,-6.7 -3.7,0 -6.7,3 -6.7,6.7 0,3.7 3,6.7 6.7,6.7 3.7,0 6.7,-3 6.7,-6.7"
         style="fill:#000000;fill-opacity:1;fill-rule:nonzero;stroke:none"
         id="path220" />
      <path
         d="m 4501.74,6300.5 c 0,-103.8 -84.15,-188 -187.97,-188 -103.81,0 -187.97,84.2 -187.97,188 0,103.8 84.16,188 187.97,188 103.82,0 187.97,-84.2 187.97,-188"
         style="fill:#ffd145;fill-opacity:1;fill-rule:nonzero;stroke:none"
         id="path222" />
      <path
         d="m 3170.17,13932.8 c 0,-198.5 -160.87,-359.3 -359.32,-359.3 -198.44,0 -359.31,160.8 -359.31,359.3 0,198.4 160.87,359.3 359.31,359.3 198.45,0 359.32,-160.9 359.32,-359.3"
         style="fill:#aae0ff;fill-opacity:1;fill-rule:nonzero;stroke:none"
         id="path224" />
      <path
         d="m 16605.9,8572.3 v 0 c -34.3,0 -62.2,27.9 -62.2,62.3 v 666.5 c 0,34.4 27.9,62.2 62.2,62.2 34.4,0 62.3,-27.8 62.3,-62.2 v -666.5 c 0,-34.4 -27.9,-62.3 -62.3,-62.3"
         style="fill:#aae0ff;fill-opacity:1;fill-rule:nonzero;stroke:none"
         id="path226" />
      <path
         d="m 16210.4,8967.8 v 0 c 0,34.4 27.9,62.3 62.3,62.3 h 666.5 c 34.4,0 62.3,-27.9 62.3,-62.3 0,-34.4 -27.9,-62.2 -62.3,-62.2 h -666.5 c -34.4,0 -62.3,27.8 -62.3,62.2"
         style="fill:#aae0ff;fill-opacity:1;fill-rule:nonzero;stroke:none"
         id="path228" />
      <path
         d="m 18042.3,14137.6 v 0 c -34.4,0 -62.2,27.9 -62.2,62.3 v 666.5 c 0,34.4 27.8,62.3 62.2,62.3 34.4,0 62.3,-27.9 62.3,-62.3 v -666.5 c 0,-34.4 -27.9,-62.3 -62.3,-62.3"
         style="fill:#aae0ff;fill-opacity:1;fill-rule:nonzero;stroke:none"
         id="path230" />
      <path
         d="m 17646.8,14533.2 v 0 c 0,34.3 27.9,62.2 62.2,62.2 h 666.6 c 34.4,0 62.2,-27.9 62.2,-62.2 0,-34.4 -27.8,-62.3 -62.2,-62.3 H 17709 c -34.3,0 -62.2,27.9 -62.2,62.3"
         style="fill:#aae0ff;fill-opacity:1;fill-rule:nonzero;stroke:none"
         id="path232" />
      <path
         d="m 11816.9,10501.2 c -92.3,0 -167.4,-75.2 -167.4,-167.5 0,-92.4 75.1,-167.5 167.4,-167.5 92.4,0 167.5,75.1 167.5,167.5 0,92.3 -75.1,167.5 -167.5,167.5 z m 0,-398.6 c -127.4,0 -231.1,103.6 -231.1,231.1 0,127.4 103.7,231.1 231.1,231.1 127.5,0 231.2,-103.7 231.2,-231.1 0,-127.5 -103.7,-231.1 -231.2,-231.1"
         style="fill:#ffffff;fill-opacity:1;fill-rule:nonzero;stroke:none"
         id="path234" />
      <path
         d="m 8452.8,8574.7 -1510.28,-5.5 -4.17,1147.8 1510.28,5.5 4.17,-1147.8"
         style="fill:#e3eeff;fill-opacity:1;fill-rule:nonzero;stroke:none"
         id="path236" />
      <path
         d="m 8381.05,8644.9 -1367.3,-4.9 -3.65,1006.7 1367.3,5 3.65,-1006.8"
         style="fill:#3397ff;fill-opacity:1;fill-rule:nonzero;stroke:none"
         id="path238" />
      <path
         d="m 7100.89,8709.6 920.92,3.4 -503.93,482.6 z"
         style="fill:#e3eeff;fill-opacity:1;fill-rule:nonzero;stroke:none"
         id="path240" />
      <path
         d="m 7519.64,8711.2 773.77,2.8 -420.2,398.9 z"
         style="fill:#e3eeff;fill-opacity:1;fill-rule:nonzero;stroke:none"
         id="path242" />
      <path
         d="m 7912.06,9303.7 c 0.22,-58.9 -47.36,-106.8 -106.26,-107 -58.9,-0.2 -106.83,47.3 -107.04,106.2 -0.21,58.9 47.36,106.9 106.26,107.1 58.91,0.2 106.83,-47.4 107.04,-106.3"
         style="fill:#e3eeff;fill-opacity:1;fill-rule:nonzero;stroke:none"
         id="path244" />
      <path
         d="m 15246.9,16282 -1510.3,-5.5 -4.2,1147.8 1510.3,5.4 4.2,-1147.7"
         style="fill:#e3eeff;fill-opacity:1;fill-rule:nonzero;stroke:none"
         id="path246" />
      <path
         d="m 15175.1,16352.2 -1367.3,-4.9 -3.6,1006.7 1367.3,5 3.6,-1006.8"
         style="fill:#3397ff;fill-opacity:1;fill-rule:nonzero;stroke:none"
         id="path248" />
      <path
         d="m 13895,16416.9 920.9,3.4 -503.9,482.6 z"
         style="fill:#e3eeff;fill-opacity:1;fill-rule:nonzero;stroke:none"
         id="path250" />
      <path
         d="m 14313.7,16418.4 773.8,2.8 -420.2,398.9 z"
         style="fill:#e3eeff;fill-opacity:1;fill-rule:nonzero;stroke:none"
         id="path252" />
      <path
         d="m 14706.1,17011 c 0.3,-58.9 -47.3,-106.8 -106.2,-107.1 -58.9,-0.2 -106.8,47.4 -107,106.3 -0.3,58.9 47.3,106.8 106.2,107 58.9,0.2 106.8,-47.3 107,-106.2"
         style="fill:#e3eeff;fill-opacity:1;fill-rule:nonzero;stroke:none"
         id="path254" />
      <path
         d="m 19981.4,961.5 h -1714.2 c -41.4,0 -75,33.5 -75,75 0,41.4 33.6,75 75,75 h 1714.2 c 41.4,0 75,-33.6 75,-75 0,-41.5 -33.6,-75 -75,-75"
         style="fill:#333333;fill-opacity:1;fill-rule:nonzero;stroke:none"
         id="path256" />
      <path
         d="M 17632.7,961.5 H 5340.74 c -41.42,0 -75,33.5 -75,75 0,41.4 33.58,75 75,75 H 17632.7 c 41.4,0 75,-33.6 75,-75 0,-41.5 -33.6,-75 -75,-75"
         style="fill:#333333;fill-opacity:1;fill-rule:nonzero;stroke:none"
         id="path258" />
      <path
         d="M 15690.5,1287.6 9230.72,1188.4 C 8459.49,1888 7812.48,3381.3 8033.33,4325.9 c 251.89,1077.5 613.35,2004.9 993.8,2567.4 166.5,245.9 336.44,422.7 501.22,512.4 795.35,432.2 4838.75,506.4 5671.25,0 109.5,-67.3 221.7,-174.2 333.8,-314 413.3,-518.5 821.3,-1492.4 1112.9,-2568.2 296.8,-1095.6 -160.5,-2515.6 -955.8,-3235.9"
         style="fill:#006b73;fill-opacity:1;fill-rule:nonzero;stroke:none"
         id="path260" />
      <g
         id="g262">
        <g
           id="g264"
           clip-path="url(#clipPath268)">
          <path
             d="M 9027.13,5994.5 H 15533.4 V 7533.3 H 9027.13 Z"
             style="fill:#004b53;fill-opacity:1;fill-rule:nonzero;stroke:none"
             id="path270" />
        </g>
      </g>
      <path
         d="m 15059,8188.5 c -26.4,-867 -1085.7,-1415.8 -1790.4,-1844.6 -820.5,-499.1 -831.8,-423.5 -2160.6,450.2 -620.3,407.8 -1356.29,786.3 -1488.25,1343 -288.47,1206 1315.95,3706.2 2792.25,3706.2 1476.2,0 2696,-2116 2647,-3654.8"
         style="fill:#000000;fill-opacity:1;fill-rule:nonzero;stroke:none"
         id="path272" />
      <path
         d="m 14199.3,8873.6 c -11.4,-148.9 -35.8,-294.1 -69.8,-431.7 -167.8,-650.5 -582.5,-1155.7 -1023.7,-1425.3 -233.8,-145.2 -475.1,-222.5 -693.8,-222.5 -24.6,0 -49.1,1.9 -73.6,3.7 -544.8,54.7 -1376.3,690.1 -1636.5,1640.3 -39.5,139.5 -65.9,284.7 -77.2,435.5 -9.5,118.8 -11.4,233.8 -7.6,346.9 41.5,1199.1 791.8,2038.1 1794.9,2038.1 1001.1,0 1753.3,-837.1 1794.8,-2034.3 3.8,-113.1 1.9,-230 -7.5,-350.7"
         style="fill:#f7a58e;fill-opacity:1;fill-rule:nonzero;stroke:none"
         id="path274" />
      <path
         d="m 10792.4,8457 c -28.2,-13.2 -60.3,-18.9 -90.5,-18.9 -135.7,-1.9 -280.9,103.7 -352.5,273.4 -88.6,207.4 -34,427.9 122.5,495.8 45.3,18.9 96.2,22.7 145.2,13.2 116.9,-22.6 235.7,-120.6 297.9,-267.7 88.6,-207.4 33.9,-428 -122.6,-495.8"
         style="fill:#f7a58e;fill-opacity:1;fill-rule:nonzero;stroke:none"
         id="path276" />
      <path
         d="m 14444.4,8711.5 c -66,-154.6 -192.3,-254.5 -314.9,-269.6 -43.4,-7.6 -86.7,-1.9 -128.2,15.1 -84.8,35.8 -139.5,120.6 -156.5,222.4 -16.9,81.1 -7.5,175.4 32.1,267.8 0,1.8 1.9,3.7 1.9,5.6 67.8,158.4 199.8,262.1 328,271.5 39.6,3.8 79.2,-1.9 116.9,-17 154.6,-67.9 209.3,-288.4 120.7,-495.8"
         style="fill:#f7a58e;fill-opacity:1;fill-rule:nonzero;stroke:none"
         id="path278" />
      <path
         d="m 14444.4,8711.5 c -66,-154.6 -192.3,-254.5 -314.9,-269.6 -167.8,-650.5 -582.5,-1155.7 -1023.7,-1425.3 305.4,309.2 775.1,1232.5 677.8,1397 -46.8,79.1 -212.7,36.9 -395,-5.2 -196.9,-45.6 -412.9,-91.1 -518.6,16.2 -322.2,327 -354.7,316.1 -676.9,13.5 -226.2,-212.4 -461.4,-130.1 -690.9,-47.9 -147.2,52.7 -291.9,105.4 -430.3,80.5 -354.4,-63.7 529.5,-1524.3 1266.5,-1672.9 -544.8,54.7 -1376.3,690.1 -1636.5,1640.3 -135.7,-1.9 -280.9,103.7 -352.5,273.4 -88.6,207.4 -34,427.9 122.5,495.8 45.3,18.9 96.2,22.7 145.2,13.2 41.5,1199.1 791.8,2038.1 1794.9,2038.1 1001.1,0 1753.3,-837.1 1794.8,-2034.3 39.6,3.8 79.2,-1.9 116.9,-17 154.6,-67.9 209.3,-288.4 120.7,-495.8"
         style="fill:#b3644f;fill-opacity:1;fill-rule:nonzero;stroke:none"
         id="path280" />
      <path
         d="m 14238.6,9248.4 v -126 c -2.6,-138.8 -71.6,-257.9 -189,-356.2 -225.1,-189 -627.1,-306.3 -1079.2,-352.9 -176,11.3 -319.2,507.3 -465,507.3 -146.6,0 -187.2,-471.9 -496.8,-507.3 -530.6,53.5 -1013.7,197.6 -1256.1,426.2 -107.8,101.8 -168.2,220 -165.7,354.6 V 9364 c 11.3,410.6 3665.6,297.6 3651.8,-115.6"
         style="fill:#000000;fill-opacity:1;fill-rule:nonzero;stroke:none"
         id="path282" />
      <path
         d="m 12253.2,8262.1 c 0,0 16.6,-234.6 266.3,-234.6 249.7,0 266.2,225.6 266.2,225.6 0,0 -88.7,-156.4 -275.3,-156.4 -186.5,0 -257.2,165.4 -257.2,165.4"
         style="fill:#f7cec3;fill-opacity:1;fill-rule:nonzero;stroke:none"
         id="path284" />
      <path
         d="m 12074.7,7640.4 c 113.8,-92.8 720.6,-60.4 746.1,0 21.9,51.5 -480.3,-37.1 -746.1,0"
         style="fill:#b3644f;fill-opacity:1;fill-rule:nonzero;stroke:none"
         id="path286" />
      <path
         d="m 12150.9,7550.1 c 0,0 282.8,-58.2 557.6,0 52.2,0 -51.5,-53.5 -108.3,-62.2 -300.8,-46.1 -449.3,62.2 -449.3,62.2"
         style="fill:#f7cec3;fill-opacity:1;fill-rule:nonzero;stroke:none"
         id="path288" />
      <path
         d="m 14049.6,8766.2 c -225.1,-189 -627.1,-306.3 -1079.2,-352.9 -176,11.3 -319.2,507.3 -465,507.3 -146.6,0 -187.2,-471.9 -496.8,-507.3 -530.6,53.5 -1013.7,197.6 -1256.1,426.2 291.6,251 903.2,422.7 1610.6,422.7 775.6,0 1436.4,-206.2 1686.5,-496"
         style="fill:#ffffff;fill-opacity:1;fill-rule:nonzero;stroke:none"
         id="path290" />
      <path
         d="m 12504.6,6187.6 c -296.8,494.3 -2163.6,1554.6 -2062.7,1957.4 256.2,1023.2 1097.4,1498.8 2045.6,1448.6 1070,-56.7 1898.6,-704.9 1962.4,-1246.7 -26.7,-482.3 -1623.5,-1611.5 -1945.3,-2159.3 m 2740.7,2670.9 c -232.1,1451.9 -1305.2,3141.8 -2726.1,3141.8 -1159.4,0 -2543.12,-1674.4 -2923.57,-2971.9 -52.62,-178.6 -86.27,-349.4 -97.48,-508.1 -11.22,-157 -0.86,-301.1 33.63,-428.8 157.89,-577.9 1398.42,-1430.3 2209.32,-1861.6 145.8,-77.7 549.5,-220.8 738.5,-225.2 131.9,-57.8 490,124.3 609.9,189 837.6,451.1 2179.1,1258.6 2202.4,2008.3 v 15.5 c 5.2,203.6 -10.4,419.3 -46.6,641"
         style="fill:#006b73;fill-opacity:1;fill-rule:nonzero;stroke:none"
         id="path292" />
      <path
         d="m 14237.7,8280.6 c -272.1,-486.7 -807.8,-1185.1 -1307.2,-1493.3 -166,-102.5 -328,-161.8 -475,-156 -74.7,3 -149.4,16.7 -223.6,39.4 -799,244.8 -1538.1,1528.2 -1538.1,1528.2 430.4,-197.9 740.1,-202.6 986.3,-142.1 337,82.7 555.1,287.4 801,285.1 191.2,-1.8 431.2,-227.5 832,-270.8 241.5,-26 541.5,14.2 924.6,209.5"
         style="fill:#000000;fill-opacity:1;fill-rule:nonzero;stroke:none"
         id="path294" />
      <path
         d="m 13313.1,8071.1 c -22.4,-390.1 -165.9,-943.3 -382.6,-1283.8 -166,-102.5 -328,-161.8 -475,-156 -74.7,3 -149.4,16.7 -223.6,39.4 -327,314.7 -532.6,959.6 -551.8,1386.1 337,82.7 555.1,287.4 801,285.1 191.2,-1.8 431.2,-227.5 832,-270.8"
         style="fill:#262626;fill-opacity:1;fill-rule:nonzero;stroke:none"
         id="path296" />
      <path
         d="m 9892.89,7533.3 c -210.17,212 -360.27,414.9 -406.45,584 -34.51,127.7 -44.87,271.8 -33.64,428.7 9.69,-50 23.5,-100.5 41.04,-151.4 0.55,-108.8 12.87,-210.3 37.94,-303.1 45.8,-167.6 182.66,-358.3 373.7,-555.1 -4.3,-1.1 -8.34,-2.1 -12.59,-3.1"
         style="fill:#ffffff;fill-opacity:1;fill-rule:nonzero;stroke:none"
         id="path298" />
      <path
         d="m 11498.7,6364.2 c -544.9,298.7 -1191.8,751.5 -1605.81,1169.1 4.25,1 8.29,2 12.59,3.1 404.82,-417.1 1052.92,-861.7 1593.22,-1172.2"
         style="fill:#008a91;fill-opacity:1;fill-rule:nonzero;stroke:none"
         id="path300" />
      <path
         d="m 11851.1,6186.3 c -109.5,49.8 -228.3,109.9 -352.4,177.9 -540.3,310.5 -1188.4,755.1 -1593.22,1172.2 v 0 c -191.04,196.8 -327.9,387.5 -373.7,555.1 -25.07,92.8 -37.39,194.3 -37.94,303.1 120.42,-349.3 416.88,-715.7 767.76,-1051.7 480.2,-459.8 1468.7,-735.6 1589.5,-1156.6"
         style="fill:#00a5ab;fill-opacity:1;fill-rule:nonzero;stroke:none"
         id="path302" />
      <path
         d="m 12903.1,6147.9 c 253.7,637.5 2112,1085.1 2343.4,2095.3 v -15.5 c -23.3,-749.6 -1464.8,-1640.8 -2343.4,-2079.8"
         style="fill:#00a5ab;fill-opacity:1;fill-rule:nonzero;stroke:none"
         id="path304" />
      <path
         d="m 12015.7,4021.1 c -2.3,0 -4.6,0.4 -7,1 -13.2,3.9 -20.9,17.7 -17,31 284.5,985.7 203.1,1881.3 81.5,2065.2 -7.6,11.5 -4.4,27 7.1,34.6 11.5,7.6 27,4.5 34.6,-7 129.5,-195.8 217.7,-1091.9 -75.2,-2106.7 -3.2,-10.9 -13.2,-18.1 -24,-18.1"
         style="fill:#f0f0f0;fill-opacity:1;fill-rule:nonzero;stroke:none"
         id="path306" />
      <path
         d="m 12000.5,6038 c -2.3,0 -4.5,0.3 -6.8,0.9 -13.3,3.7 -21.1,17.5 -17.3,30.8 0.9,3.2 22.7,79 84.8,103.3 36.8,14.4 78.1,7.8 122.8,-19.6 11.8,-7.2 15.5,-22.6 8.3,-34.4 -7.3,-11.8 -22.7,-15.4 -34.4,-8.2 -30.7,18.8 -57.1,24.1 -78.5,15.6 -38.5,-15.1 -54.7,-69.6 -54.9,-70.2 -3.1,-11 -13.1,-18.2 -24,-18.2"
         style="fill:#f0f0f0;fill-opacity:1;fill-rule:nonzero;stroke:none"
         id="path308" />
      <path
         d="m 12767.3,4021.1 c -10.9,0 -20.9,7.2 -24,18.1 -292.9,1014.8 -204.7,1910.9 -75.3,2106.7 7.7,11.5 23.2,14.6 34.7,7 11.5,-7.6 14.7,-23.1 7,-34.6 -121.5,-183.9 -202.9,-1079.5 81.6,-2065.2 3.9,-13.3 -3.8,-27.1 -17.1,-31 -2.3,-0.6 -4.6,-1 -6.9,-1"
         style="fill:#f0f0f0;fill-opacity:1;fill-rule:nonzero;stroke:none"
         id="path310" />
      <path
         d="m 12782.5,6038 c -10.9,0 -20.9,7.2 -24,18.2 -0.2,0.5 -16.3,55.2 -55.1,70.3 -21.4,8.3 -47.8,3 -78.3,-15.7 -11.7,-7.2 -27.1,-3.6 -34.4,8.2 -7.2,11.8 -3.5,27.2 8.2,34.4 44.8,27.4 86.1,34 122.9,19.6 62.1,-24.3 83.9,-100.1 84.8,-103.3 3.7,-13.3 -4,-27.1 -17.3,-30.8 -2.3,-0.6 -4.6,-0.9 -6.8,-0.9"
         style="fill:#f0f0f0;fill-opacity:1;fill-rule:nonzero;stroke:none"
         id="path312" />
      <path
         d="m 15261.7,8836.7 c -8.5,26.7 -17.2,53.4 -26.2,80.2 -251,1438.4 -1314.4,3083.4 -2716.3,3083.4 -970.6,0 -2098.4,-1173.6 -2663.24,-2317 528.64,1150.4 1630.24,2351.3 2663.54,2353 0.9,0.1 2,0.1 2.9,0.1 1419.4,0 2507.4,-1748.8 2739.3,-3199.7"
         style="fill:#ffffff;fill-opacity:1;fill-rule:nonzero;stroke:none"
         id="path314" />
      <path
         d="m 15235.5,8916.9 c -351.1,1051.8 -1052.4,2183 -2568.3,2302.5 -74,5.8 -146.9,8.6 -218.6,8.6 -1546.7,0 -2564.55,-1311.4 -2836.59,-2221.3 54.76,216.7 137.83,445.7 243.95,676.6 564.84,1143.4 1692.64,2317 2663.24,2317 1401.9,0 2465.3,-1645 2716.3,-3083.4"
         style="fill:#004b53;fill-opacity:1;fill-rule:nonzero;stroke:none"
         id="path316" />
      <path
         d="M 16295,1017.3 H 8510.52 l -1067.2,3711 c -51.97,180.7 83.66,360.8 271.68,360.8 h 9375.5 c 188.1,0 323.7,-180.1 271.7,-360.8 L 16295,1017.3"
         style="fill:#000000;fill-opacity:1;fill-rule:nonzero;stroke:none"
         id="path318" />
      <path
         d="m 11834.9,2645.2 c -13.4,112.6 84.9,208.1 220.2,208.1 135.3,0 246.3,-95.5 247.8,-208.1 1.5,-107.1 -97.6,-190.3 -221.4,-190.3 -123.7,0 -233.9,83.2 -246.6,190.3 z m 520.9,-153.8 c 31.2,0 72.8,-90.2 56.2,-103.4 -16.6,-13 -106.4,-12.4 -122.3,0 -15.9,12.6 35.1,103.4 66.1,103.4 z m 288.4,361.9 c 135.3,0 234.2,-95.5 221.6,-208.1 -12.1,-107.1 -121.8,-190.3 -245.5,-190.3 -123.8,0 -223.4,83.2 -222.6,190.3 0.8,112.6 111.2,208.1 246.5,208.1 z m 130.6,-534.5 c 148.8,93.6 259.9,241 287.1,418.3 55.3,360.5 -253.2,697.5 -697.6,697.5 -444.5,0 -753,-337 -697.7,-697.5 27.7,-180.5 142.3,-330.1 295.3,-423.3 h 0.5 l 8.9,-91.7 h 0.7 l 8.6,-88.5 c 2.6,-26.4 30.5,-49.2 65.4,-51.8 40.1,-2.9 72.5,20.7 70.6,50.2 l -5,80.7 c -0.4,5.2 4.9,9.4 11.7,9.4 6.8,0 12.6,-4.2 12.9,-9.4 l 4.5,-79.1 c 1.4,-26.4 28.5,-49.2 63.3,-51.8 39.9,-2.9 73.3,20.7 72.6,50.2 l -1.8,80.7 c -0.1,5.2 5.3,9.4 12.1,9.4 6.8,0 12.4,-4.2 12.5,-9.4 l 1.3,-79.1 c 0.4,-26.4 26.5,-49.2 61.2,-51.8 39.8,-2.9 74.1,20.7 74.7,50.2 l 1.4,80.7 c 0.1,5.2 5.7,9.4 12.5,9.4 6.8,0 12.3,-4.2 12.1,-9.4 l -1.9,-80.7 c -0.7,-27.9 28.9,-50.4 65.8,-50.4 36.9,0 68.4,22.5 70,50.4 l 4.8,80.7 c 0.3,5.2 6.1,9.4 12.9,9.4 6.8,0 12,-4.2 11.7,-9.4 l -5.3,-80.7 c -1.8,-27.9 26.9,-50.4 63.8,-50.4 36.9,0 69.3,22.5 72.1,50.4 l 16.2,162.9 c 0.1,1.5 0.2,2.9 0.2,4.4 l 1.9,19.5"
         style="fill:#ea6d00;fill-opacity:1;fill-rule:nonzero;stroke:none"
         id="path320" />
    </g>
  </g>
</svg>
